<svg width="17" height="20" viewBox="0 0 17 20" fill="none" xmlns="http://www.w3.org/2000/svg">
<path d="M14.8571 17.5V18H15.3571C15.5124 18 15.6715 18.0671 15.7963 18.2035C15.9224 18.3414 16 18.5373 16 18.75C16 18.9627 15.9224 19.1586 15.7963 19.2965C15.6715 19.4329 15.5124 19.5 15.3571 19.5H11.9286C11.7733 19.5 11.6142 19.4329 11.4895 19.2965C11.3634 19.1586 11.2857 18.9627 11.2857 18.75V16.25C11.2857 15.7996 11.1225 15.3596 10.82 15.0287C10.5161 14.6963 10.0938 14.5 9.64286 14.5H7.35714C6.90623 14.5 6.48393 14.6963 6.18001 15.0287C5.87745 15.3596 5.71429 15.7996 5.71429 16.25V18.75C5.71429 18.9627 5.63664 19.1586 5.51054 19.2965C5.3858 19.4329 5.22673 19.5 5.07143 19.5H1.64286C1.48755 19.5 1.32848 19.4329 1.20375 19.2965C1.07765 19.1586 1 18.9627 1 18.75C1 18.5373 1.07765 18.3414 1.20375 18.2035C1.32848 18.0671 1.48755 18 1.64286 18H2.14286V17.5V2.5C2.14286 1.95583 2.34091 1.44196 2.68134 1.06962C3.0204 0.698771 3.47017 0.5 3.92857 0.5H13.0714C13.5298 0.5 13.9796 0.698771 14.3187 1.06962C14.6591 1.44196 14.8571 1.95583 14.8571 2.5V17.5ZM5.07143 3.25H4.57143V3.75V6.25V6.75H5.07143H7.35714H7.85714V6.25V3.75V3.25H7.35714H5.07143ZM7.85714 8.75V8.25H7.35714H5.07143H4.57143V8.75V11.25V11.75H5.07143H7.35714H7.85714V11.25V8.75ZM9.64286 3.25H9.14286V3.75V6.25V6.75H9.64286H11.9286H12.4286V6.25V3.75V3.25H11.9286H9.64286ZM12.4286 8.75V8.25H11.9286H9.64286H9.14286V8.75V11.25V11.75H9.64286H11.9286H12.4286V11.25V8.75Z" stroke="#E0E0E0"/>
</svg>
