<svg width="50" height="49" viewBox="0 0 50 49" fill="none" xmlns="http://www.w3.org/2000/svg">
<path d="M41.7111 48.1128H17.7142C15.6686 48.1128 13.7067 47.3002 12.2601 45.8536C10.8136 44.4071 10.001 42.4452 10.001 40.3995V16.4027C10.001 14.357 10.8136 12.3951 12.2601 10.9486C13.7067 9.5021 15.6686 8.68945 17.7142 8.68945H41.7111C43.7567 8.68945 45.7186 9.5021 47.1652 10.9486C48.6117 12.3951 49.4243 14.357 49.4243 16.4027V40.3995C49.4243 42.4452 48.6117 44.4071 47.1652 45.8536C45.7186 47.3002 43.7567 48.1128 41.7111 48.1128Z" fill="url(#paint0_linear_2_10375)"/>
<rect x="20" y="21" width="21" height="3" rx="1.5" fill="white"/>
<rect x="20" y="27" width="17" height="3" rx="1.5" fill="white"/>
<rect x="20" y="33" width="12" height="3" rx="1.5" fill="white"/>
<path d="M14.5801 5.14218H39.8497C39.3164 3.63942 38.3312 2.33848 37.0292 1.41783C35.7273 0.497184 34.1723 0.00192511 32.5778 0H8.58094C6.53526 0 4.57336 0.812645 3.12684 2.25916C1.68032 3.70568 0.867676 5.66758 0.867676 7.71326V31.7101C0.869601 33.3047 1.36486 34.8596 2.28551 36.1615C3.20616 37.4635 4.5071 38.4487 6.00985 38.982V13.7125C6.00985 11.4395 6.91279 9.2596 8.52003 7.65236C10.1273 6.04512 12.3072 5.14218 14.5801 5.14218Z" fill="url(#paint1_linear_2_10375)"/>
<defs>
<linearGradient id="paint0_linear_2_10375" x1="29.7127" y1="8.68945" x2="29.7127" y2="48.1128" gradientUnits="userSpaceOnUse">
<stop stop-color="#47ADE7"/>
<stop offset="1" stop-color="#93D4FA"/>
</linearGradient>
<linearGradient id="paint1_linear_2_10375" x1="20.3587" y1="0" x2="20.3587" y2="38.982" gradientUnits="userSpaceOnUse">
<stop stop-color="#47ADE7"/>
<stop offset="1" stop-color="#93D4FA"/>
</linearGradient>
</defs>
</svg>
