<svg width="162" height="128" viewBox="0 0 162 128" fill="none" xmlns="http://www.w3.org/2000/svg">
  <g clip-path="url(#clip0_2_10613)">
    <path opacity="0.1"
      d="M56.8272 125.521C72.434 125.521 85.0858 123.101 85.0858 120.115C85.0858 117.13 72.434 114.709 56.8272 114.709C41.2204 114.709 28.5686 117.13 28.5686 120.115C28.5686 123.101 41.2204 125.521 56.8272 125.521Z"
      fill="#3B9DCE" />
    <path opacity="0.1"
      d="M94.1221 18.0521C83.7366 17.6892 73.8452 14.3025 64.4 10.5983C54.9548 6.89409 45.5995 2.79124 35.4626 0.828942C28.9428 -0.433347 21.4858 -0.613211 16.2336 2.91277C11.1772 6.3156 9.54366 12.1733 8.66589 17.613C8.00476 21.7061 7.61642 26.0148 9.42651 29.847C10.6846 32.5077 12.9151 34.7438 14.4588 37.2927C19.8297 46.1595 16.033 57.094 10.2144 65.7518C7.48644 69.8125 4.31717 73.6917 2.21022 78.0101C0.103255 82.3284 -0.870792 87.2933 0.972998 91.7105C2.79914 96.0856 7.15266 99.3653 11.8689 101.674C21.4473 106.365 32.7298 107.707 43.7396 108.469C68.1037 110.151 92.5961 109.423 117.024 108.692C126.065 108.423 135.144 108.149 144.038 106.738C148.977 105.954 154.075 104.709 157.661 101.705C162.212 97.8923 163.34 91.4367 160.29 86.6565C155.174 78.6355 141.034 76.6441 137.454 68.0381C135.486 63.3001 137.507 58.0241 140.368 53.6312C146.504 44.2053 156.789 35.9365 157.329 25.1641C157.702 17.7653 152.758 10.3553 145.113 6.85358C137.101 3.18338 125.988 3.64519 120.08 9.72006C113.99 15.9683 103.293 18.3746 94.1221 18.0521Z"
      fill="#3B9DCE" />
    <path
      d="M85.8701 58.6161L80.955 55.27L83.4342 51.5431L70.4523 50.4979L65.7874 54.1406L59.948 50.8349L55.0777 51.4264L55.02 50.1301C54.9597 48.7787 54.8252 47.4317 54.6172 46.0953C54.638 45.6902 54.6525 45.2251 54.6509 44.7196C54.6509 42.5887 54.3652 39.7644 53.1104 37.8815L53.3992 35.2597L51.0564 32.4645C51.4326 31.7077 51.8616 30.9789 52.3401 30.2835C52.4204 30.1668 52.5006 30.0534 52.5872 29.9432C55.6281 29.7212 58.0271 27.1966 58.0271 24.1097C58.0271 23.9671 58.0271 23.8245 58.0111 23.6836C58.0111 23.6269 57.9999 23.5685 57.9935 23.5118C58.2903 23.6739 58.5904 23.8359 58.8905 23.9979C58.9466 24.079 59.0108 24.16 59.0814 24.2556L59.0959 24.2734L59.1857 24.3852L59.2146 24.4192C59.2467 24.4581 59.2804 24.4954 59.3141 24.5343L59.3366 24.5602C59.4216 24.6558 59.5115 24.753 59.6078 24.8486C59.6192 24.8581 59.63 24.8684 59.6399 24.8794L59.7602 24.9929L59.7939 25.0236C59.8966 25.116 60.0057 25.2051 60.1149 25.2894L60.1502 25.3153L60.2882 25.4109L60.3331 25.4401C60.386 25.4725 60.4406 25.5065 60.4936 25.5373L60.5128 25.5486C60.5754 25.5827 60.6396 25.6151 60.7038 25.6459L60.7359 25.6588C60.7904 25.6826 60.8439 25.7053 60.8963 25.7269L60.9461 25.7447C61.0022 25.7642 61.0568 25.782 61.1146 25.7982L61.1499 25.8079C61.2205 25.8257 61.2911 25.8403 61.3633 25.8517H61.3713C61.4393 25.8628 61.5079 25.8698 61.5767 25.8727H61.6233C61.6847 25.876 61.7463 25.876 61.8078 25.8727H61.8479C61.9249 25.8683 62.0015 25.8591 62.0774 25.8452C62.4364 25.7975 62.7812 25.6726 63.0883 25.479C63.1666 25.4262 63.2359 25.3611 63.2937 25.2861C63.6147 24.8616 63.2617 24.3965 63.2617 24.3965C63.1365 24.0952 62.3245 23.8829 62.3245 23.8829C62.3245 23.8829 59.757 22.8005 59.757 21.9384C59.757 21.0764 59.1151 16.6041 52.4894 15.5816C52.4894 15.5816 48.1792 15.3369 46.9676 17.667L46.9419 17.9393C46.5857 18.1645 46.2904 18.6166 45.939 18.7495C45.7872 18.7824 45.6408 18.837 45.5041 18.9115V18.8807C45.4636 18.9165 45.4303 18.96 45.4063 19.0087C45.3308 19.1604 45.2855 19.3256 45.2731 19.4948C45.2369 19.7016 45.1658 19.9006 45.0628 20.0831C45.0341 20.1349 45.002 20.1847 44.9666 20.2321L44.9393 20.2759C45.1256 20.2905 45.3127 20.26 45.4849 20.1868C45.4577 20.4086 45.4039 20.6263 45.3244 20.8349C45.4264 20.8382 45.5272 20.8119 45.6149 20.7591C45.7025 20.7062 45.7732 20.629 45.8187 20.5368V20.5238L45.8395 20.4946C45.8799 20.4196 45.9132 20.341 45.939 20.2597L45.9214 20.2791C45.9535 20.1738 45.9823 20.0668 46.0176 19.9631C46.0338 19.9047 46.0605 19.8498 46.0963 19.8011C46.1391 19.7575 46.1915 19.7247 46.2492 19.7052C46.3069 19.6858 46.3683 19.6804 46.4284 19.6893L46.3626 21.0942H46.3915C46.3529 21.1964 46.3056 21.295 46.2503 21.3891C46.0225 21.7618 45.6084 22.0162 45.456 22.4245C45.3903 22.6215 45.3651 22.8299 45.3822 23.037C45.3822 23.1586 45.3966 23.2817 45.4063 23.4032V23.3935C45.4287 23.7176 45.4351 24.0255 45.2618 24.2864C45.1431 24.4646 44.9521 24.5991 44.8863 24.8016C44.8681 24.8581 44.86 24.9173 44.8623 24.9767C44.8751 25.1542 44.9118 25.3292 44.9714 25.4968C44.9721 25.4936 44.9721 25.4903 44.9714 25.4871C45.0114 25.6104 45.0208 25.7417 44.9987 25.8695C44.9264 26.1936 44.5365 26.4642 44.5558 26.7737C44.5547 26.8144 44.5606 26.855 44.5734 26.8936C44.6484 27.0448 44.7784 27.1608 44.9361 27.2177C45.1835 27.3597 45.4676 27.423 45.7513 27.3991C45.8576 27.3797 45.9604 27.3442 46.0562 27.2938C45.9438 27.5547 45.8283 27.8123 45.7111 28.057C45.6935 28.0959 45.6742 28.1348 45.655 28.1737C45.655 28.1737 44.6633 27.5045 44.1 28.8688C43.9356 29.1524 43.818 29.461 43.7518 29.7827C43.7236 29.9114 43.6839 30.0373 43.6331 30.1587C43.383 30.5861 43.0088 30.9256 42.5611 31.1309C41.4122 31.6624 36.7714 37.5072 36.6896 39.0206C36.6494 39.6114 36.5505 40.1966 36.3943 40.7674C36.029 42.1116 35.9351 43.5163 36.1183 44.8978C36.1756 45.3443 36.2707 45.785 36.4023 46.2152C36.895 47.727 37.2239 50.5481 37.2239 50.5481L37.7567 55.445C37.7369 56.1208 37.7659 56.7972 37.8433 57.4689C37.2994 58.0959 35.1154 60.7096 35.9498 61.421C36.5917 61.9817 37.715 61.8893 38.3456 61.7743C37.8145 63.1014 36.9784 65.4088 36.8677 66.9935C36.7072 69.3383 37.1421 72.4446 37.8305 73.6372C38.5189 74.8298 40.8136 77.8891 40.8136 77.8891C40.8136 77.8891 40.7061 82.0859 41.5261 83.6107C42.3461 85.1355 42.6767 88.2985 42.6767 88.2985C42.6767 88.2985 43.4421 90.9689 43.0586 91.9509C42.6751 92.9329 43.7695 93.7495 42.6205 94.4026C41.4715 95.0556 40.0017 109.774 40.0017 109.774C40.0017 109.774 39.4095 119.42 40.0017 119.911C40.0333 119.934 40.0672 119.954 40.1028 119.971V123.212C40.1028 123.212 39.6919 123.892 41.3624 124.03C42.5066 124.122 45.7497 124.331 47.6737 124.453L49.1644 124.547C49.1644 124.547 52.6948 125.257 54.2545 124.547C55.8143 123.837 58.5792 123.853 58.1684 121.978C58.1139 121.723 58.0409 121.473 57.9501 121.228C57.4992 120.065 56.7338 119.932 55.3232 119.608C55.2414 119.59 55.1628 119.574 55.0906 119.561C53.6046 119.3 53.1168 119.998 52.284 119.089C51.5602 118.303 49.2559 117.424 48.4712 117.145C48.4905 117.086 48.5145 117.03 48.5338 116.97C48.3116 116.932 48.1049 116.83 47.9385 116.677L50.0647 116.813L51.3308 116.892C51.3308 116.892 54.3315 117.496 55.6634 116.892C56.9953 116.288 59.3382 116.304 58.9884 114.711C58.9423 114.494 58.8806 114.281 58.8038 114.073C58.4203 113.084 57.7688 112.976 56.5701 112.702C56.5011 112.687 56.4369 112.673 56.3727 112.661C55.1098 112.439 54.6958 113.032 53.9881 112.261C53.3816 111.603 51.4672 110.866 50.7788 110.615C50.7788 110.255 50.2974 109.743 49.9941 109.229C49.6378 108.63 50.2957 106.531 50.2957 106.531L50.6712 97.8248C50.8142 97.7605 50.9655 97.7169 51.1206 97.6952C51.1206 97.6952 52.8183 96.0586 52.4348 94.3151C52.3567 93.7877 52.3159 93.2554 52.3128 92.7222C52.8713 92.1988 53.6399 91.4259 53.8582 90.9495C54.2144 90.1733 53.8582 86.4124 53.8582 86.4124V72.0314L56.6985 72.3214L59.2756 72.5888L60.0603 72.6698L62.6374 72.9323L68.5603 73.5367L73.8975 72.5159L76.2067 72.0751L80.955 71.1677V59.436L85.8701 58.6161ZM46.7783 19.7411L46.4477 19.7055C46.5568 19.7104 46.6724 19.7314 46.7783 19.7411Z"
      fill="url(#paint0_linear_2_10613)" />
    <path
      d="M74.3505 66.2335C72.7458 68.5523 66.977 67.324 66.977 67.324L62.5063 63.0996L61.9045 62.5276L62.9139 60.3628C62.9139 60.3628 63.2348 60.4519 63.7852 60.6107C66.6753 61.4582 75.7049 64.2842 74.3505 66.2335Z"
      fill="#EFB7B9" />
    <path opacity="0.1"
      d="M63.782 60.6107C63.5847 61.3042 63.0439 62.3429 62.5063 63.0996L61.9045 62.5276L62.9139 60.3628C62.9139 60.3628 63.238 60.4519 63.782 60.6107Z"
      fill="black" />
    <path
      d="M48.4488 36.198C48.4488 36.198 44.328 38.0436 44.5302 42.5758C44.6756 45.4957 44.9907 48.4045 45.4737 51.2871C45.4737 51.2871 44.6312 58.1074 48.1391 59.8655C51.647 61.6236 54.8932 63.069 54.8932 63.069C54.8932 63.069 60.3813 63.6653 61.0633 63.9116C61.7453 64.1579 63.8763 60.3921 63.4832 59.8055C63.09 59.2189 58.0529 57.9891 57.411 57.0103C56.7691 56.0316 55.2848 55.4272 55.2848 55.4272C55.2848 55.4272 53.7523 54.4906 53.648 53.6448C53.5437 52.7989 53.9481 52.1686 54.0508 51.7975C54.1535 51.4265 54.4134 47.8438 54.4134 47.8438C54.4134 47.8438 56.1433 35.0912 48.4488 36.198Z"
      fill="#DCE6F2" />
    <path opacity="0.1"
      d="M51.1683 51.1011C51.1683 51.1011 45.515 52.0571 46.0622 54.055C46.0622 54.055 48.1146 51.8983 51.1683 51.1011Z"
      fill="black" />
    <path opacity="0.1"
      d="M51.2123 51.9092C51.2123 51.9092 48.104 54.471 48.7122 54.6023C49.3204 54.7335 51.2123 51.9092 51.2123 51.9092Z"
      fill="black" />
    <path opacity="0.1"
      d="M52.7058 52.8022C52.7058 52.8022 51.873 54.5247 52.3849 54.4081C52.8968 54.2914 52.7058 52.8022 52.7058 52.8022Z"
      fill="black" />
    <path opacity="0.1"
      d="M63.9902 60.7941L63.6468 60.6953C63.7446 60.3712 63.7719 60.1087 63.6917 59.9872C63.2985 59.4006 58.2646 58.1723 57.6244 57.192C56.9841 56.2116 55.4981 55.6089 55.4981 55.6089C55.4981 55.6089 53.9657 54.6723 53.8614 53.8264C53.757 52.9806 54.1614 52.3502 54.2641 51.9792C54.3668 51.6081 54.6268 48.0238 54.6268 48.0238C54.6268 48.0238 56.3518 35.2729 48.6573 36.3796C48.6573 36.3796 44.5365 38.2269 44.7371 42.7591C44.8826 45.6791 45.1982 48.5879 45.6822 51.4704C45.6822 51.4704 44.8398 58.2906 48.3476 60.0487C51.8555 61.8069 55.1018 63.2523 55.1018 63.2523C55.1018 63.2523 60.5882 63.847 61.2718 64.0949C61.5302 64.1889 61.9971 63.7044 62.4545 63.0384L62.7144 63.2831L67.1851 67.5058C67.1851 67.5058 72.954 68.7357 74.5587 66.4169C75.9146 64.466 66.8866 61.64 63.9902 60.7941Z"
      fill="black" />
    <path
      d="M46.0776 19.1873C45.9205 19.2183 45.77 19.277 45.6331 19.3607C45.4726 19.4952 45.4726 19.7253 45.4325 19.9262C45.3854 20.2057 45.2756 20.4707 45.1116 20.7008C45.2942 20.7143 45.4773 20.6837 45.6459 20.6116C45.6185 20.8334 45.5646 21.0511 45.4855 21.2598C45.5854 21.2624 45.684 21.2358 45.7694 21.1832C45.8548 21.1306 45.9234 21.0542 45.9669 20.9633C46.0518 20.7807 46.119 20.5902 46.1675 20.3945C46.1825 20.336 46.2087 20.281 46.2445 20.2325C46.3921 20.0558 46.6665 20.1352 46.8944 20.1579C47.084 20.1741 47.2745 20.1387 47.446 20.0555C47.6176 19.9723 47.764 19.8443 47.87 19.6848C48.1123 19.3137 48.1268 18.3642 47.5491 18.2637C46.9457 18.1632 46.5702 19.0026 46.0776 19.1873Z"
      fill="#965D7B" />
    <g opacity="0.1">
      <path opacity="0.1"
        d="M45.6168 19.5598C45.6313 19.4804 45.6409 19.3978 45.6585 19.3184C45.5061 19.4529 45.4981 19.6813 45.458 19.8839C45.4377 20.0007 45.406 20.1153 45.3633 20.2258C45.4896 20.0224 45.5757 19.7963 45.6168 19.5598Z"
        fill="black" />
      <path opacity="0.1"
        d="M45.668 20.8982C45.7479 20.6897 45.8018 20.4719 45.8285 20.25C45.6678 20.3183 45.4939 20.3488 45.3198 20.3391C45.2691 20.4531 45.2073 20.5617 45.1353 20.6632C45.3172 20.6774 45.4999 20.6474 45.668 20.5757C45.6414 20.7976 45.5875 21.0154 45.5075 21.2239C45.6075 21.2262 45.706 21.1995 45.7914 21.147C45.8767 21.0944 45.9453 21.0181 45.9889 20.9273C46.0289 20.8537 46.0612 20.776 46.0852 20.6956C46.0381 20.7621 45.9752 20.8154 45.9023 20.8508C45.8294 20.8862 45.7488 20.9025 45.668 20.8982Z"
        fill="black" />
      <path opacity="0.1"
        d="M47.0769 19.7964C46.849 19.7737 46.573 19.6943 46.4254 19.871C46.3902 19.9198 46.3641 19.9747 46.3483 20.033C46.3339 20.0751 46.321 20.1189 46.3098 20.1626C46.4623 20.0411 46.7094 20.1059 46.9164 20.127C47.106 20.1426 47.2962 20.107 47.4677 20.0239C47.6391 19.9407 47.7856 19.813 47.892 19.6538C47.9407 19.5751 47.9769 19.4893 47.9995 19.3994C47.8896 19.5368 47.7481 19.6448 47.5872 19.714C47.4263 19.7832 47.2511 19.8115 47.0769 19.7964Z"
        fill="black" />
    </g>
    <path d="M50.9073 32.5698L53.3544 35.5416L53.0351 38.541L50.0776 33.8661L50.9073 32.5698Z" fill="#DCE6F2" />
    <path opacity="0.1"
      d="M53.3528 35.5416L53.0527 38.3627L53.0335 38.541L50.3649 34.3215L50.0776 33.8661L50.1611 33.7349L50.9057 32.5698L51.0709 32.7708L53.3528 35.5416Z"
      fill="black" />
    <path
      d="M54.624 28.5462C53.796 28.786 53.0048 29.6091 52.3164 30.6089C51.8511 31.2987 51.435 32.0211 51.0712 32.7705C50.8449 33.2275 50.6459 33.6666 50.4807 34.049L50.3651 34.3213C50.0859 34.9872 49.9303 35.4328 49.9303 35.4328C49.9303 35.4328 43.5917 30.6203 44.5947 30.2962C44.9316 30.1876 45.3745 29.4584 45.8126 28.5397L45.8672 28.423C46.1448 27.8332 46.4176 27.1753 46.6599 26.5563C47.1557 25.2843 47.5232 24.1792 47.5232 24.1792C47.5232 24.1792 57.1514 27.817 54.624 28.5462Z"
      fill="#EFB7B9" />
    <path
      d="M58.416 23.9092C58.416 23.9092 59.8795 26.5828 61.8452 26.2182C63.811 25.8537 63.0022 24.7826 63.0022 24.7826L58.416 23.9092Z"
      fill="#444053" />
    <path
      d="M55.58 116.458C54.2834 117.056 51.3517 116.458 51.3517 116.458L50.116 116.38C48.5114 116.276 45.8251 116.101 44.8751 116.024C43.4887 115.908 43.8289 115.335 43.8289 115.335V111.869L50.5557 110.148C50.5557 110.148 53.2147 111.067 53.9432 111.869C54.6349 112.634 55.0392 112.045 56.2732 112.266C56.3342 112.277 56.3984 112.29 56.4658 112.306C57.6372 112.577 58.2727 112.684 58.6482 113.664C58.7236 113.87 58.7842 114.081 58.8295 114.296C59.1761 115.874 56.875 115.863 55.58 116.458Z"
      fill="#A36468" />
    <path opacity="0.1"
      d="M58.6482 113.664C58.4072 113.816 58.1538 113.947 57.8908 114.056C57.0082 114.463 56.169 114.959 55.2767 115.343C54.3845 115.727 53.4233 116.001 52.4573 115.928C51.9518 115.89 51.4351 115.766 50.9521 115.912C50.6534 116.028 50.372 116.186 50.116 116.38C48.5114 116.276 45.8251 116.101 44.8751 116.023C43.4887 115.908 43.8289 115.335 43.8289 115.335V114.93C43.8786 114.93 43.9348 114.915 43.999 114.91C44.331 114.905 44.6617 114.955 44.9778 115.058C45.6743 115.249 46.3675 115.437 47.0639 115.625C47.1212 115.406 47.2219 115.202 47.3598 115.024C47.4978 114.847 47.6701 114.699 47.8663 114.591C48.2638 114.378 48.7099 114.274 49.1596 114.291C50.2396 114.306 51.2618 114.823 52.3401 114.874C52.6416 114.902 52.9452 114.851 53.2211 114.725C53.3688 114.651 53.4987 114.542 53.6432 114.46C53.8743 114.347 54.1185 114.263 54.3701 114.212C55.0772 114.034 55.7715 113.808 56.4482 113.534C56.6407 113.458 56.8654 113.321 56.8397 113.113C56.806 112.838 56.3776 112.805 56.2652 112.552C56.2454 112.507 56.2363 112.457 56.2385 112.408C56.2407 112.358 56.2543 112.309 56.2781 112.266C56.339 112.277 56.4032 112.29 56.4706 112.306C57.6372 112.577 58.2727 112.684 58.6482 113.664Z"
      fill="black" />
    <path
      d="M54.2095 124.042C52.6851 124.745 49.235 124.042 49.235 124.042L47.7828 123.956C45.9021 123.834 42.7344 123.632 41.6159 123.536C39.984 123.4 40.3851 122.726 40.3851 122.726V118.641L48.3011 116.615C48.3011 116.615 51.4302 117.696 52.2871 118.641C53.1007 119.54 53.5709 118.848 55.0295 119.107C55.1018 119.12 55.1772 119.137 55.2558 119.154C56.6342 119.478 57.382 119.6 57.8233 120.754C57.9127 120.996 57.984 121.245 58.0367 121.497C58.4347 123.354 55.734 123.34 54.2095 124.042Z"
      fill="#A36468" />
    <path opacity="0.1"
      d="M57.8201 120.753C57.5366 120.932 57.2386 121.087 56.9295 121.215C55.8913 121.693 54.9028 122.277 53.8533 122.729C52.8038 123.181 51.6725 123.502 50.5348 123.417C49.9411 123.374 49.3329 123.223 48.7696 123.398C48.4167 123.537 48.0846 123.724 47.7828 123.955C45.9021 123.834 42.7344 123.631 41.6159 123.536C39.984 123.4 40.3851 122.725 40.3851 122.725V122.249C40.4516 122.238 40.5185 122.231 40.5857 122.226C40.9766 122.219 41.366 122.278 41.7379 122.4L44.1915 123.067C44.2598 122.81 44.3794 122.569 44.5431 122.36C44.7067 122.151 44.9108 121.977 45.143 121.85C45.6108 121.599 46.1363 121.477 46.6659 121.497C47.9368 121.515 49.1387 122.123 50.408 122.184C50.7615 122.217 51.1174 122.157 51.4415 122.011C51.6164 121.922 51.7624 121.794 51.9389 121.698C52.2103 121.564 52.4978 121.466 52.7942 121.406C53.6218 121.196 54.4345 120.929 55.2269 120.609C55.4532 120.518 55.718 120.356 55.6875 120.113C55.6474 119.789 55.1435 119.75 55.0103 119.452C54.9878 119.398 54.9776 119.34 54.9804 119.282C54.9832 119.224 54.9989 119.167 55.0263 119.115C55.0986 119.128 55.174 119.144 55.2526 119.162C56.631 119.473 57.3788 119.6 57.8201 120.753Z"
      fill="black" />
    <path
      d="M50.7593 96.0103L50.3309 106.191C50.3309 106.191 49.689 108.27 50.0372 108.865C50.3854 109.46 50.9727 110.053 50.7593 110.404C50.5459 110.756 47.9784 114.557 47.1487 113.099C46.3191 111.641 45.5007 105.321 45.5007 105.321L46.2662 97.5156L50.7593 96.0103Z"
      fill="#444053" />
    <path
      d="M52.6175 70.6445L53.8082 72.252V86.2328C53.8082 86.2328 54.1564 89.9597 53.8082 90.7294C53.46 91.499 51.6948 93.0384 51.6948 93.0384L50.2104 85.3415L50.5314 77.199L52.6175 70.6445Z"
      fill="#444053" />
    <path opacity="0.1"
      d="M50.7593 96.0103L50.3309 106.191C50.3309 106.191 49.689 108.27 50.0372 108.865C50.3854 109.46 50.9727 110.053 50.7593 110.404C50.5459 110.756 47.9784 114.557 47.1487 113.099C46.3191 111.641 45.5007 105.321 45.5007 105.321L46.2662 97.5156L50.7593 96.0103Z"
      fill="black" />
    <path opacity="0.1"
      d="M52.6175 70.6445L53.8082 72.252V86.2328C53.8082 86.2328 54.1564 89.9597 53.8082 90.7294C53.46 91.499 51.6948 93.0384 51.6948 93.0384L50.2104 85.3415L50.5314 77.199L52.6175 70.6445Z"
      fill="black" />
    <path
      d="M53.8089 64.6814V72.2438L52.4722 78.1307C52.4722 78.1307 52.0438 92.3367 52.4177 94.0641C52.7915 95.7914 51.1339 97.4134 51.1339 97.4134C51.1339 97.4134 50.1711 97.522 50.1711 98.2771C50.1711 99.0322 48.5664 101.194 48.5664 101.194L48.6193 105.407C48.6193 105.407 49.3158 113.293 48.2455 114.805C47.1751 116.317 48.6193 116.534 48.6193 116.534C47.2826 120.963 40.8639 119.937 40.2846 119.451C39.7053 118.965 40.2846 109.404 40.2846 109.404C40.2846 109.404 41.7192 94.8208 42.8425 94.1727C43.9657 93.5245 42.897 92.7143 43.2709 91.7421C43.6448 90.7698 42.897 88.1237 42.897 88.1237C42.897 88.1237 42.5761 84.9899 41.7737 83.478C40.9714 81.9662 41.0773 77.8066 41.0773 77.8066C41.0773 77.8066 38.8307 74.7814 38.1632 73.5936C37.4956 72.4059 37.0656 69.3271 37.226 67.0035C37.3352 65.4333 38.1519 63.1469 38.6703 61.8312C38.919 61.2008 39.0987 60.7925 39.0987 60.7925L39.2512 60.833L48.016 63.1502L53.8089 64.6814Z"
      fill="#444053" />
    <path opacity="0.1"
      d="M54.6239 28.5468C53.7959 28.7866 53.0048 29.6098 52.3163 30.6095H52.1366C51.1276 30.6103 50.1362 30.342 49.2627 29.8318C48.3893 29.3217 47.6646 28.5877 47.1621 27.7042C46.9521 27.3381 46.7831 26.9495 46.6582 26.5456C47.1541 25.2736 47.5215 24.1685 47.5215 24.1685C47.5215 24.1685 57.1513 27.8176 54.6239 28.5468Z"
      fill="black" />
    <path
      d="M57.873 24.4955C57.8744 25.3821 57.6743 26.2573 57.288 27.0535C56.9017 27.8497 56.3396 28.5457 55.6449 29.088C54.9503 29.6303 54.1416 30.0043 53.2813 30.1813C52.4209 30.3582 51.5318 30.3334 50.6824 30.1087C49.8331 29.8841 49.0461 29.4655 48.3822 28.8853C47.7182 28.3051 47.195 27.5788 46.8529 26.7623C46.5108 25.9457 46.3588 25.0608 46.4087 24.1756C46.4586 23.2904 46.7091 22.4286 47.1408 21.6566C47.3147 21.3429 47.5178 21.0466 47.7474 20.7719C48.1258 20.3166 48.5705 19.9221 49.0664 19.6019C49.904 19.0645 50.8653 18.7556 51.8564 18.7055C52.8476 18.6554 53.8346 18.8658 54.7212 19.3161C55.6077 19.7664 56.3634 20.4412 56.9144 21.2746C57.4655 22.108 57.793 23.0715 57.8649 24.071C57.8682 24.2136 57.873 24.3545 57.873 24.4955Z"
      fill="#EFB7B9" />
    <path opacity="0.1"
      d="M53.053 38.3628L53.0337 38.5411L50.3651 34.3281C50.0859 34.994 49.9303 35.4397 49.9303 35.4397C49.9303 35.4397 43.5917 30.6206 44.5947 30.2965C44.9316 30.188 45.3745 29.4588 45.8126 28.54L45.8672 28.4233C46.3325 29.8234 49.0364 32.6218 50.1613 33.7431C50.2913 33.8727 50.3988 33.9797 50.4823 34.0575L50.654 34.2195L50.7438 34.3102C51.153 34.7364 52.8797 36.6161 53.053 38.3628Z"
      fill="black" />
    <path
      d="M55.0478 52.6577L54.7558 62.1484L54.7044 63.8384C54.7044 63.8384 51.2447 63.5143 48.016 63.1579C45.4164 62.871 42.9661 62.5616 42.589 62.3801C42.1076 62.1516 41.0758 61.975 40.2622 61.8632C39.6331 61.7773 39.1389 61.7319 39.1389 61.7319C39.1389 61.7319 38.9543 61.787 38.6703 61.8389C38.0509 61.9523 36.9629 62.0446 36.3291 61.4889C35.5187 60.7775 37.6481 58.193 38.1793 57.5724L38.2964 57.4379L38.0958 55.5663L37.5743 50.7132C37.5743 50.7132 37.2534 47.918 36.772 46.4192C36.6433 45.993 36.5504 45.5567 36.4944 45.1148C36.3155 43.7458 36.4071 42.3546 36.7639 41.0216C36.9164 40.4552 37.0132 39.875 37.0528 39.2894C37.133 37.7906 41.6663 31.9976 42.7896 31.471C43.2949 31.2331 43.7015 30.8236 43.9385 30.3141C44.0168 30.1538 44.0755 29.9846 44.1134 29.8101C44.5948 27.7036 45.8128 28.5397 45.8128 28.5397C46.1065 30.1877 50.6526 34.5498 50.6526 34.5498L50.7424 34.6405C51.1933 35.1072 53.2024 37.298 53.0596 39.1679C53.0311 39.8639 53.134 40.559 53.3629 41.2161C54.2876 44.1562 54.8192 47.208 54.9435 50.2903L55.0478 52.6577Z"
      fill="#DCE6F2" />
    <path opacity="0.1"
      d="M48.6061 41.3882C48.6061 41.3882 47.4828 44.1429 46.6404 44.5885C45.7979 45.0341 49.0073 45.5283 48.6061 41.3882Z"
      fill="black" />
    <path opacity="0.1"
      d="M49.4484 46.5327C49.4484 46.5327 46.8809 46.8568 46.8809 47.3429C46.8809 47.829 49.4484 46.5327 49.4484 46.5327Z"
      fill="black" />
    <path opacity="0.1"
      d="M52.1367 49.6929C52.1367 49.6929 48.4058 57.7138 47.3627 57.9569C46.3197 58.1999 52.1367 49.6929 52.1367 49.6929Z"
      fill="black" />
    <path opacity="0.1"
      d="M50.5815 34.9569L47.4957 36.3116L43.7712 30.6305C43.8495 30.4702 43.9082 30.301 43.9462 30.1265C44.4276 28.02 45.6455 28.8561 45.6455 28.8561C45.9392 30.5041 50.4853 34.8662 50.4853 34.8662L50.5815 34.9569Z"
      fill="black" />
    <path
      d="M50.7422 34.6327L47.6564 35.9874L43.9319 30.3062C44.0101 30.146 44.0689 29.9768 44.1068 29.8023C44.5882 27.6958 45.8062 28.5319 45.8062 28.5319C46.0998 30.1799 50.6459 34.542 50.6459 34.542L50.7422 34.6327Z"
      fill="#DCE6F2" />
    <path opacity="0.1"
      d="M54.7035 63.839C54.7035 63.839 51.2438 63.5149 48.0152 63.1584L53.8081 64.6897V66.4721C53.5546 66.7038 53.3347 66.8237 53.1919 66.7622C52.5243 66.4786 47.0764 65.5874 47.0764 65.5874C47.0764 65.5874 43.912 63.967 40.4972 62.0225C40.4143 61.9761 40.3339 61.9253 40.2565 61.8702C39.8583 61.5972 39.5152 61.2502 39.2455 60.8477C38.6149 59.9257 38.3068 58.7412 38.1736 57.5794C38.0987 56.9135 38.0708 56.2432 38.0901 55.5733C38.1067 54.8138 38.1753 54.0563 38.2955 53.3064C37.9653 50.4017 37.8045 47.48 37.8141 44.5562C37.8542 40.0191 42.0666 38.3987 42.0666 38.3987C49.8092 37.7101 47.4086 50.3492 47.4086 50.3492C47.4086 50.3492 46.9609 53.914 46.8389 54.2786C46.717 54.6432 46.2789 55.2509 46.3383 56.1016C46.3976 56.9523 47.8772 57.9699 47.8772 57.9699C47.8772 57.9699 49.3214 58.6537 49.9167 59.6664C50.35 60.4134 53.1646 61.4262 54.7549 62.1489L54.7035 63.839Z"
      fill="black" />
    <path opacity="0.1"
      d="M57.2967 20.8983C57.2997 21.1652 57.2449 21.4295 57.1363 21.6729C57.054 21.8714 56.9586 22.0641 56.8506 22.2497C56.6817 22.5911 56.442 22.8918 56.1478 23.1312C55.7771 23.3986 55.3085 23.4731 54.864 23.5817C54.4195 23.6903 53.9574 23.8636 53.7038 24.2461C53.5664 24.4919 53.4745 24.7609 53.4326 25.04C53.3901 25.3189 53.2799 25.5828 53.1117 25.8081C53.0241 25.9181 52.9029 25.9956 52.7669 26.0285C52.631 26.0613 52.4881 26.0477 52.3607 25.9896C52.2265 25.8982 52.1247 25.7659 52.0703 25.612C51.8873 25.1956 51.8408 24.7338 51.767 24.2849C51.6932 23.8361 51.5889 23.3743 51.3161 23.0129C51.0433 22.6516 50.5603 22.4134 50.1318 22.5544C49.9884 22.6101 49.8576 22.6945 49.7473 22.8026C49.637 22.9106 49.5495 23.04 49.4899 23.1831C49.3713 23.4694 49.2899 23.7701 49.2476 24.0775C49.0486 25.1772 48.8138 26.2705 48.5432 27.3572C48.5349 27.4018 48.5168 27.4439 48.4902 27.4804C48.4475 27.5233 48.39 27.5477 48.3297 27.5484C47.9703 27.597 47.6253 27.3426 47.2626 27.3702C47.2252 27.3727 47.1882 27.3787 47.1519 27.388C46.5655 26.359 46.3066 25.1728 46.4103 23.9903C46.5139 22.8077 46.975 21.6859 47.7312 20.7768L47.7601 20.7687C48.0013 20.6822 48.2205 20.5427 48.4019 20.3603C48.6336 20.1263 48.8481 19.8755 49.0438 19.6101L49.1722 19.4481C49.541 18.9994 49.9612 18.5963 50.4239 18.2473C50.5501 18.1429 50.695 18.0637 50.8507 18.014C50.9839 17.9878 51.1205 17.9834 51.2551 18.001C51.8093 18.0682 52.368 18.0894 52.9256 18.0642C53.3141 18.0026 53.7057 17.9625 54.0986 17.9443C55.1144 17.9735 55.9809 18.6978 56.6228 19.4918C56.9678 19.8985 57.2759 20.3668 57.2967 20.8983Z"
      fill="black" />
    <path
      d="M46.391 21.8106C46.168 22.18 45.7652 22.4312 45.6144 22.8363C45.3929 23.4245 45.7668 24.1569 45.4234 24.6819C45.3095 24.8585 45.1217 24.9898 45.0575 25.1923C44.9484 25.5342 45.2469 25.8988 45.1699 26.2504C45.0928 26.6021 44.6339 26.8986 44.7558 27.2421C44.8279 27.3919 44.9543 27.508 45.1089 27.5662C45.352 27.7071 45.6319 27.7698 45.9112 27.7461C46.3493 27.6732 46.6751 27.2389 47.1196 27.2065C47.4806 27.1805 47.8256 27.4333 48.1851 27.3863C48.2453 27.3842 48.3026 27.3594 48.3455 27.3167C48.3728 27.2806 48.391 27.2383 48.3985 27.1935C48.6681 26.1078 48.9034 25.0146 49.1046 23.9138C49.1455 23.6063 49.2265 23.3056 49.3453 23.0194C49.4053 22.8766 49.493 22.7474 49.6032 22.6395C49.7135 22.5315 49.844 22.4469 49.9871 22.3907C50.4156 22.2513 50.897 22.4879 51.1714 22.8492C51.4458 23.2106 51.5501 23.6724 51.6239 24.1212C51.6977 24.5701 51.7443 25.0319 51.9256 25.4483C51.9807 25.6028 52.083 25.7356 52.2177 25.8275C52.4584 25.9685 52.7825 25.8567 52.967 25.646C53.1361 25.4206 53.2465 25.156 53.288 24.8763C53.3298 24.5978 53.4218 24.3292 53.5592 24.084C53.8127 23.7016 54.2765 23.5282 54.7194 23.4196C55.1623 23.311 55.6292 23.2349 56.0031 22.9675C56.297 22.7283 56.5366 22.4283 56.706 22.0876C56.9435 21.6696 57.1649 21.2159 57.1457 20.7346C57.1248 20.2096 56.8167 19.7413 56.4877 19.333C55.8459 18.539 54.9777 17.8147 53.962 17.7871C53.5689 17.8037 53.1773 17.8437 52.7889 17.907C52.2313 17.9323 51.6725 17.9107 51.1184 17.8422C50.9837 17.8259 50.8473 17.8308 50.7141 17.8568C50.5582 17.9049 50.4136 17.9842 50.2888 18.0901C49.8257 18.4385 49.405 18.841 49.0356 19.2892C48.7973 19.6082 48.539 19.9113 48.2621 20.1966C48.0806 20.3793 47.8614 20.5193 47.6202 20.6066C47.4597 20.652 47.2993 20.6196 47.1468 20.6698C46.6735 20.8205 46.6109 21.4443 46.391 21.8106Z"
      fill="#965D7B" />
    <path opacity="0.1"
      d="M61.8452 26.2166C60.5615 26.4548 59.4976 25.4064 58.9087 24.6416C58.7278 24.4093 58.5632 24.1646 58.416 23.9092L62.8225 24.7485L63.0006 24.7826C63.0006 24.7826 63.811 25.8537 61.8452 26.2166Z"
      fill="black" />
    <g opacity="0.1">
      <path opacity="0.1"
        d="M45.17 25.7868C45.1879 25.5749 45.156 25.3617 45.0769 25.1646C45.0769 25.1808 45.0624 25.197 45.0576 25.2132C44.9886 25.4303 45.0817 25.6555 45.1411 25.8808C45.1538 25.8505 45.1635 25.819 45.17 25.7868Z"
        fill="black" />
      <path opacity="0.1"
        d="M45.5526 23.1348C45.536 23.3588 45.5403 23.584 45.5654 23.8072C45.5818 23.5832 45.5775 23.358 45.5526 23.1348Z"
        fill="black" />
      <path opacity="0.1"
        d="M56.6966 21.6194C56.5277 21.9608 56.288 22.2614 55.9937 22.5009C55.6231 22.7682 55.1561 22.8428 54.71 22.9513C54.2639 23.0599 53.8033 23.2333 53.5498 23.6157C53.4126 23.8616 53.3207 24.1307 53.2786 24.4097C53.2368 24.6893 53.1265 24.9538 52.9577 25.1794C52.7731 25.39 52.449 25.5035 52.2083 25.3609C52.0736 25.2689 51.9713 25.1362 51.9162 24.9817C51.7349 24.5653 51.6867 24.1051 51.6145 23.6546C51.5423 23.2041 51.4348 22.7439 51.162 22.3826C50.8892 22.0212 50.4062 21.783 49.9777 21.924C49.8345 21.98 49.7038 22.0645 49.5936 22.1725C49.4833 22.2805 49.3957 22.4098 49.3359 22.5527C49.2171 22.8389 49.1361 23.1396 49.0952 23.4472C48.8951 24.548 48.6598 25.6412 48.3891 26.7269C48.3816 26.7716 48.3634 26.8139 48.3362 26.85C48.2932 26.8927 48.2359 26.9176 48.1757 26.9197C47.8162 26.9667 47.4712 26.7139 47.1102 26.7398C46.6657 26.7722 46.3399 27.2065 45.9018 27.2778C45.6224 27.3031 45.3421 27.2403 45.0995 27.0979C44.988 27.0495 44.8879 26.9777 44.8058 26.8873C44.7683 26.9416 44.7434 27.0038 44.7331 27.0692C44.7229 27.1346 44.7274 27.2015 44.7465 27.2648C44.8171 27.4157 44.9441 27.5322 45.0995 27.5889C45.3421 27.7312 45.6224 27.7941 45.9018 27.7688C46.3399 27.6975 46.6657 27.2632 47.1102 27.2308C47.4712 27.2049 47.8162 27.4577 48.1757 27.4107C48.2359 27.4086 48.2932 27.3837 48.3362 27.341C48.3634 27.3049 48.3816 27.2626 48.3891 27.2178C48.6587 26.1376 48.894 25.0444 49.0952 23.9382C49.1361 23.6306 49.2171 23.3299 49.3359 23.0437C49.3957 22.9008 49.4833 22.7715 49.5936 22.6635C49.7038 22.5555 49.8345 22.471 49.9777 22.415C50.4062 22.274 50.8876 22.5122 51.162 22.8736C51.4364 23.2349 51.5407 23.6967 51.6145 24.1456C51.6883 24.5944 51.7349 25.0562 51.9162 25.4727C51.9713 25.6271 52.0736 25.7599 52.2083 25.8519C52.449 25.9928 52.7731 25.881 52.9577 25.6704C53.1265 25.4448 53.2368 25.1802 53.2786 24.9007C53.3207 24.6216 53.4126 24.3526 53.5498 24.1067C53.8033 23.7243 54.2671 23.5525 54.71 23.4423C55.1529 23.3321 55.6198 23.2592 55.9937 22.9919C56.288 22.7524 56.5277 22.4517 56.6966 22.1104C56.9341 21.6939 57.1555 21.2402 57.1363 20.7589C57.1331 20.6971 57.1267 20.6354 57.117 20.5742C57.0396 20.9451 56.8972 21.299 56.6966 21.6194Z"
        fill="black" />
    </g>
    <path opacity="0.1"
      d="M57.1428 21.6681C57.5544 22.4069 57.7983 23.2288 57.8569 24.0744C56.4271 23.2642 55.0824 22.3746 54.4036 22.0651C53.221 21.5255 48.7984 21.6065 47.136 21.6567C47.3099 21.343 47.513 21.0468 47.7426 20.772C48.1224 20.3164 48.5689 19.9219 49.0664 19.6021C49.7254 19.1798 50.4627 18.8976 51.2333 18.7728C52.0039 18.648 52.7917 18.6833 53.5483 18.8763C54.305 19.0694 55.0148 19.4163 55.6342 19.8957C56.2536 20.3752 56.7697 20.9771 57.1509 21.6648L57.1428 21.6681Z"
      fill="black" />
    <path opacity="0.1"
      d="M62.2464 25.5296C61.4746 25.7694 60.2149 25.306 58.9087 24.6416C58.7278 24.4093 58.5632 24.1646 58.416 23.9092L62.8225 24.7485C63.1145 24.9495 63.1884 25.2363 62.2464 25.5296Z"
      fill="black" />
    <path
      d="M52.478 16.0498C52.478 16.0498 48.2657 15.8068 47.0815 18.1158L46.8905 20.1624L46.5696 20.1268L46.5054 21.5187C46.5054 21.5187 52.9434 21.2351 54.4085 21.9027C55.8736 22.5703 60.4261 25.9343 62.2506 25.3671C64.0751 24.8 62.0901 24.2733 62.0901 24.2733C62.0901 24.2733 59.5788 23.199 59.5788 22.3564C59.5788 21.5138 58.9562 17.0626 52.478 16.0498Z"
      fill="#444053" />
    <path opacity="0.1"
      d="M44.3535 91.917C44.3535 91.917 47.0414 94.5501 48.2048 94.3476C48.2048 94.3476 44.9152 94.064 44.3535 91.917Z"
      fill="black" />
    <path opacity="0.1"
      d="M43.7917 93.1372C43.7917 93.1372 44.0325 94.4918 44.6743 94.359C45.3162 94.2261 43.7917 93.1372 43.7917 93.1372Z"
      fill="black" />
    <path opacity="0.1"
      d="M48.0046 115.777C48.0046 115.777 44.1887 118.775 44.8321 118.856C45.4756 118.937 48.0046 115.777 48.0046 115.777Z"
      fill="black" />
    <path d="M53.1084 56.2813L65.4645 54.251V66.0637L53.7246 65.4431L53.1084 56.2813Z" fill="#3B9DCE" />
    <path opacity="0.05" d="M53.1084 56.2813L65.4645 54.251V66.0637L53.7246 65.4431L53.1084 56.2813Z" fill="black" />
    <path d="M65.4646 54.251L80.2823 55.3707L79.4623 65.6505L65.4646 66.0637V54.251Z" fill="#3B9DCE" />
    <path opacity="0.1" d="M65.4646 54.251L80.2823 55.3707L79.4623 65.6505L65.4646 66.0637V54.251Z" fill="black" />
    <path d="M70.0203 50.6455L65.4646 54.2509L80.2823 55.3706L82.7038 51.6809L70.0203 50.6455Z" fill="#3B9DCE" />
    <path d="M48.635 52.3437L59.7587 50.9761L65.465 54.2509L53.1089 56.2812L48.635 52.3437Z" fill="#3B9DCE" />
    <path
      d="M68.1732 57.3183V73.4688L62.3851 72.8693L59.8674 72.61L59.1003 72.529L56.5842 72.2681L53.1084 71.9084V56.2812L65.4629 57.1303L68.1732 57.3183Z"
      fill="#3B9DCE" />
    <path d="M80.2828 55.3706V71.1209L75.6437 72.0202L73.3875 72.4577L68.1738 73.4688V57.3183L80.2828 55.3706Z"
      fill="#3B9DCE" />
    <path opacity="0.05"
      d="M80.2828 55.3706V71.1209L75.6437 72.0202L73.3875 72.4577L68.1738 73.4688V57.3183L80.2828 55.3706Z"
      fill="black" />
    <path d="M48.635 59.6808L53.1089 56.2812L68.1737 57.3183L65.956 61.0906L48.635 59.6808Z" fill="#3B9DCE" />
    <path opacity="0.1" d="M48.635 59.6808L53.1089 56.2812L68.1737 57.3183L65.956 61.0906L48.635 59.6808Z"
      fill="white" />
    <path d="M80.2828 55.3706L68.1738 57.3183L72.1149 60.8832L85.0856 58.6859L80.2828 55.3706Z" fill="#3B9DCE" />
    <path opacity="0.1" d="M80.2828 55.3706L68.1738 57.3183L72.1149 60.8832L85.0856 58.6859L80.2828 55.3706Z"
      fill="white" />
    <path opacity="0.1" d="M75.6434 72.0202L73.3872 72.4577V69.0922L75.5006 68.5542L75.6434 72.0202Z" fill="white" />
    <path opacity="0.1" d="M62.3857 70.6431V72.8695L59.8679 72.6102V70.6431H62.3857Z" fill="white" />
    <path opacity="0.1" d="M59.1011 71.3447V72.5292L56.585 72.2683V71.3447H59.1011Z" fill="white" />
    <path opacity="0.1"
      d="M66.659 69.4616C64.934 71.6896 59.2373 70.1502 59.2373 70.1502L55.0042 65.6909L54.4297 65.0865L55.553 62.98C55.553 62.98 55.8739 63.0869 56.4099 63.2749C59.247 64.2763 68.1113 67.5868 66.659 69.4616Z"
      fill="black" />
    <path
      d="M66.4986 69.1373C64.7736 71.3654 59.0769 69.826 59.0769 69.826L54.8438 65.3667L54.2693 64.7623L55.3926 62.6558C55.3926 62.6558 55.7135 62.7627 56.2495 62.9507C59.0866 63.9521 67.9509 67.2625 66.4986 69.1373Z"
      fill="#EFB7B9" />
    <path opacity="0.1"
      d="M56.2426 62.9507C56.0084 63.6312 55.413 64.6391 54.8369 65.3667L54.2625 64.7623L55.3857 62.6558C55.3857 62.6558 55.7083 62.7627 56.2426 62.9507Z"
      fill="black" />
    <path
      d="M42.227 37.7504C42.227 37.7504 38.0146 39.3708 37.9745 43.9079C37.9649 46.8317 38.1257 49.7534 38.4559 52.6581C38.4559 52.6581 37.2524 59.4232 40.6624 61.3677C44.0724 63.3122 47.2416 64.9326 47.2416 64.9326C47.2416 64.9326 52.6895 65.8238 53.3587 66.1074C54.0278 66.3909 56.353 62.7451 55.992 62.1374C55.6309 61.5298 50.6708 60.0309 50.0819 59.0181C49.493 58.0054 48.0424 57.3232 48.0424 57.3232C48.0424 57.3232 46.5628 56.304 46.5035 55.4533C46.4441 54.6026 46.8806 53.9949 47.0041 53.6303C47.1277 53.2657 47.5754 49.7009 47.5754 49.7009C47.5754 49.7009 49.9696 37.0537 42.227 37.7504Z"
      fill="#DCE6F2" />
    <path opacity="0.1"
      d="M44.1533 52.7715C44.1533 52.7715 38.4566 53.4196 38.8979 55.4451C38.8979 55.4451 41.0626 53.4018 44.1533 52.7715Z"
      fill="black" />
    <path opacity="0.1"
      d="M44.1532 53.5815C44.1532 53.5815 40.9197 55.9716 41.5135 56.1337C42.1072 56.2957 44.1532 53.5815 44.1532 53.5815Z"
      fill="black" />
    <path opacity="0.1"
      d="M45.5975 54.5537C45.5975 54.5537 44.6748 56.2292 45.1963 56.1417C45.7178 56.0542 45.5975 54.5537 45.5975 54.5537Z"
      fill="black" />
    <path
      d="M104.91 18.2116C104.91 18.2116 98.8117 17.8405 99.5242 22.1605C99.5242 22.1605 99.3814 22.9237 100.067 23.2705C100.067 23.2705 100.078 22.9464 100.692 23.0582C100.911 23.0954 101.134 23.1063 101.355 23.0906C101.655 23.0704 101.94 22.9514 102.167 22.7519C102.167 22.7519 103.883 22.0373 104.55 19.2049C104.55 19.2049 105.044 18.5859 105.032 18.4271L104.001 18.8727C104.001 18.8727 104.353 19.623 104.075 20.2468C104.075 20.2468 104.043 18.9003 103.844 18.931C103.804 18.931 103.31 19.1919 103.31 19.1919C103.31 19.1919 103.915 20.498 103.457 21.4491C103.457 21.4491 103.631 19.8385 103.12 19.2859L102.395 19.7137C102.395 19.7137 103.103 21.0635 102.623 22.1654C102.623 22.1654 102.746 20.4753 102.243 19.8174L101.585 20.3343C101.585 20.3343 102.251 21.6663 101.845 22.5802C101.845 22.5802 101.792 20.613 101.442 20.4639C101.442 20.4639 100.867 20.976 100.781 21.1866C100.781 21.1866 101.235 22.1589 100.952 22.6628C100.952 22.6628 100.779 21.3519 100.631 21.3454C100.631 21.3454 100.059 22.214 99.9992 22.8038C100.027 22.2539 100.197 21.721 100.492 21.2579C100.162 21.321 99.8571 21.4804 99.6157 21.7165C99.6157 21.7165 99.7039 21.1024 100.633 21.0489C100.633 21.0489 101.114 20.3894 101.233 20.3489C101.233 20.3489 100.309 20.2711 99.7489 20.5223C99.7489 20.5223 100.242 19.9438 101.403 20.1982L102.045 19.6635C102.045 19.6635 100.829 19.5014 100.312 19.6813C100.312 19.6813 100.906 19.1692 102.22 19.5419L102.926 19.1158C102.926 19.1158 101.89 18.8889 101.272 18.9716C101.272 18.9716 101.923 18.6167 103.133 19.0007L103.639 18.7722C103.639 18.7722 102.878 18.6216 102.657 18.5972C102.435 18.5729 102.422 18.5114 102.422 18.5114C102.903 18.4305 103.397 18.4866 103.849 18.6734C103.849 18.6734 104.932 18.2796 104.91 18.2116Z"
      fill="#3B9DCE" />
    <path opacity="0.1"
      d="M123.438 39.818C123.438 39.818 117.34 39.447 118.053 43.7669C118.053 43.7669 117.91 44.5301 118.595 44.8769C118.595 44.8769 118.606 44.5528 119.222 44.6646C119.441 44.7018 119.664 44.7127 119.885 44.697C120.182 44.6753 120.463 44.5571 120.687 44.36C120.687 44.36 122.404 43.6438 123.072 40.8113C123.072 40.8113 123.565 40.194 123.545 40.0352L122.515 40.4792C122.515 40.4792 122.867 41.2294 122.591 41.8532C122.591 41.8532 122.557 40.5067 122.359 40.5375C122.319 40.5375 121.824 40.7984 121.824 40.7984C121.824 40.7984 122.43 42.106 121.973 43.0556C121.973 43.0556 122.146 41.4449 121.634 40.8924L120.917 41.3153C120.917 41.3153 121.625 42.6651 121.145 43.7669C121.145 43.7669 121.268 42.0769 120.764 41.419L120.108 41.9375C120.108 41.9375 120.772 43.2679 120.368 44.1818C120.368 44.1818 120.315 42.2146 119.965 42.0655C119.965 42.0655 119.391 42.5776 119.303 42.7882C119.303 42.7882 119.758 43.7605 119.476 44.2644C119.476 44.2644 119.303 42.9535 119.155 42.947C119.155 42.947 118.582 43.8155 118.523 44.4054C118.551 43.8554 118.722 43.3226 119.017 42.8595C118.686 42.9227 118.381 43.0821 118.139 43.3181C118.139 43.3181 118.229 42.704 119.158 42.6505C119.158 42.6505 119.632 41.991 119.758 41.9505C119.758 41.9505 118.834 41.8727 118.274 42.1239C118.274 42.1239 118.767 41.5454 119.927 41.8079L120.569 41.2731C120.569 41.2731 119.351 41.1111 118.836 41.291C118.836 41.291 119.429 40.7789 120.744 41.1516L121.45 40.7255C121.45 40.7255 120.411 40.5002 119.794 40.5812C119.794 40.5812 120.447 40.2264 121.657 40.6104L122.162 40.3819C122.162 40.3819 121.401 40.2312 121.178 40.2069C120.955 40.1826 120.944 40.121 120.944 40.121C121.426 40.0401 121.92 40.0962 122.372 40.2831C122.372 40.2831 123.457 39.8861 123.438 39.818Z"
      fill="#3B9DCE" />
    <path opacity="0.1"
      d="M86.3935 35.9825C86.3935 35.9825 87.7976 29.9724 83.4585 29.9514C83.4585 29.9514 82.7379 29.6791 82.2838 30.3014C82.2838 30.3014 82.5935 30.3678 82.3833 30.9609C82.3106 31.1706 82.2621 31.3881 82.2389 31.609C82.2078 31.9102 82.2748 32.2135 82.4298 32.4727C82.4298 32.4727 82.8358 34.3038 85.4788 35.451C85.4788 35.451 85.9987 36.0473 86.156 36.0538L85.8992 34.9535C85.8992 34.9535 85.1065 35.1755 84.5448 34.7915C84.5448 34.7915 85.8655 34.9876 85.8671 34.7915C85.8671 34.751 85.7067 34.2146 85.7067 34.2146C85.7067 34.2146 84.3282 34.5938 83.4777 33.9764C83.4777 33.9764 85.0198 34.4237 85.6473 34.0105L85.3584 33.2132C85.3584 33.2132 83.9142 33.688 82.9257 33.022C82.9257 33.022 84.5545 33.4336 85.283 33.0447L84.8899 32.3026C84.8899 32.3026 83.4777 32.7368 82.6545 32.1778C82.6545 32.1778 84.5801 32.4597 84.7888 32.1389C84.7888 32.1389 84.3876 31.4794 84.1966 31.3563C84.1966 31.3563 83.176 31.6447 82.7267 31.2769C82.7267 31.2769 84.0345 31.3271 84.065 31.1877C84.065 31.1877 83.3156 30.4699 82.7444 30.3079C83.2767 30.4303 83.7684 30.6905 84.1709 31.063C84.1651 30.7234 84.0613 30.3928 83.8725 30.1118C83.8725 30.1118 84.4566 30.3062 84.3539 31.2461C84.3539 31.2461 84.9155 31.8294 84.9332 31.9623C84.9332 31.9623 85.1659 31.0565 85.0166 30.4553C85.0166 30.4553 85.498 31.0451 85.0439 32.1551L85.4547 32.8924C85.4547 32.8924 85.827 31.7095 85.7323 31.1651C85.7323 31.1651 86.1319 31.8424 85.543 33.0868L85.8398 33.863C85.8398 33.863 86.2362 32.8681 86.2619 32.2426C86.2619 32.2426 86.4978 32.9524 85.9153 34.0915L86.0533 34.6327C86.0533 34.6327 86.3293 33.9019 86.3903 33.6848C86.4512 33.4676 86.5138 33.466 86.5138 33.466C86.5114 33.959 86.373 34.4415 86.1142 34.8596C86.1142 34.8596 86.3245 35.9906 86.3935 35.9825Z"
      fill="#3B9DCE" />
    <path opacity="0.1"
      d="M73.0397 38.0307C73.0397 38.0307 68.1422 34.3314 66.3914 38.3386C66.3914 38.3386 65.8571 38.8976 66.2406 39.5668C66.2406 39.5668 66.4235 39.306 66.8825 39.7386C67.045 39.8913 67.2249 40.024 67.4184 40.134C67.6805 40.2813 67.9831 40.3382 68.2802 40.296C68.2802 40.296 70.1031 40.6509 72.202 38.6562C72.202 38.6562 72.9514 38.4131 73.022 38.2705L71.9164 38.0745C71.9164 38.0745 71.8008 38.896 71.2312 39.2638C71.2312 39.2638 71.9356 38.1198 71.7527 38.0372C71.7158 38.0194 71.1638 37.9562 71.1638 37.9562C71.1638 37.9562 70.9584 39.3854 70.0598 39.925C70.0598 39.925 71.082 38.6756 70.9552 37.9302L70.1159 37.8849C70.1159 37.8849 69.9731 39.4064 68.9718 40.0611C68.9718 40.0611 69.994 38.7178 69.9346 37.8881L69.1034 37.9562C69.1034 37.9562 68.9349 39.4356 68.0988 39.9736C68.0988 39.9736 69.1242 38.3013 68.914 37.9837C68.914 37.9837 68.155 38.0923 67.9673 38.2187C67.9673 38.2187 67.8212 39.2784 67.3077 39.5474C67.3077 39.5474 67.8774 38.3564 67.7618 38.2738C67.7618 38.2738 66.8103 38.6805 66.4364 39.1439C66.7598 38.7002 67.1924 38.3494 67.6912 38.1263C67.3808 37.996 67.0396 37.96 66.7092 38.0226C66.7092 38.0226 67.1168 37.5592 67.9223 38.0307C67.9223 38.0307 68.6765 37.7439 68.8049 37.7796C68.8049 37.7796 68.0748 37.2011 67.4698 37.1006C67.4698 37.1006 68.1983 36.89 69.0247 37.7488L69.8576 37.6629C69.8576 37.6629 68.9317 36.8527 68.4005 36.7166C68.4005 36.7166 69.1756 36.6177 70.0694 37.658L70.891 37.6953C70.891 37.6953 70.148 36.9305 69.588 36.655C69.588 36.655 70.3245 36.7198 71.1269 37.7131L71.6741 37.8022C71.6741 37.8022 71.1205 37.2545 70.9472 37.112C70.7738 36.9694 70.7979 36.9094 70.7979 36.9094C71.2443 37.109 71.6271 37.4299 71.9036 37.8363C71.9036 37.8363 73.0188 38.0972 73.0397 38.0307Z"
      fill="#3B9DCE" />
    <path opacity="0.1"
      d="M89.3441 3.66035C89.3441 3.66035 84.4466 -0.0406408 82.6959 3.96822C82.6959 3.96822 82.1615 4.52726 82.545 5.19648C82.545 5.19648 82.728 4.9356 83.1869 5.36825C83.3503 5.52017 83.5307 5.65232 83.7245 5.762C83.9865 5.90948 84.2892 5.96638 84.5862 5.92404C84.5862 5.92404 86.4091 6.27891 88.5081 4.28258C88.5081 4.28258 89.2575 4.04114 89.3265 3.89693L88.2208 3.7041C88.2208 3.7041 88.1069 4.52564 87.5356 4.89347C87.5356 4.89347 88.2417 3.74947 88.0588 3.66683C88.0219 3.64901 87.4699 3.58581 87.4699 3.58581C87.4699 3.58581 87.258 5.01824 86.3594 5.55459C86.3594 5.55459 87.38 4.30527 87.2548 3.55988L86.4156 3.51451C86.4156 3.51451 86.2711 5.03606 85.2714 5.68908C85.2714 5.68908 86.2936 4.34578 86.2342 3.51613L85.4046 3.58419C85.4046 3.58419 85.2345 5.06523 84.3985 5.6032C84.3985 5.6032 85.4255 3.93095 85.2153 3.61336C85.2153 3.61336 84.4562 3.72192 84.2685 3.84831C84.2685 3.84831 84.1225 4.90805 83.609 5.17704C83.609 5.17704 84.1786 3.98605 84.0631 3.90179C84.0631 3.90179 83.1115 4.31013 82.7376 4.77356C83.0606 4.32936 83.4932 3.97848 83.9925 3.75595C83.6818 3.62471 83.3397 3.58864 83.0088 3.65225C83.0088 3.65225 83.418 3.18881 84.2236 3.66035C84.2236 3.66035 84.9778 3.37192 85.1061 3.40919C85.1061 3.40919 84.376 2.8307 83.771 2.72862C83.771 2.72862 84.498 2.51959 85.3244 3.37678L86.1572 3.2909C86.1572 3.2909 85.2329 2.4807 84.7001 2.34296C84.7001 2.34296 85.4752 2.24574 86.3706 3.28604L87.1922 3.32168C87.1922 3.32168 86.4493 2.55686 85.8876 2.28301C85.8876 2.28301 86.6258 2.34783 87.4281 3.34113L87.9737 3.43025C87.9737 3.43025 87.4185 2.88904 87.2452 2.74968C87.0719 2.61033 87.096 2.54876 87.096 2.54876C87.5425 2.74816 87.9253 3.06908 88.2016 3.47562C88.2016 3.47562 89.3169 3.72192 89.3441 3.66035Z"
      fill="#3B9DCE" />
    <path opacity="0.1"
      d="M108.059 8.34852C108.059 8.34852 106.101 2.49727 102.409 4.79661C102.409 4.79661 101.654 4.95865 101.595 5.72186C101.595 5.72186 101.892 5.61167 102.023 6.22742C102.072 6.44646 102.146 6.65906 102.243 6.861C102.376 7.13277 102.592 7.35391 102.859 7.49133C102.859 7.49133 104.162 8.82816 107.012 8.38579C107.012 8.38579 107.765 8.61589 107.903 8.53649L107.101 7.74087C107.101 7.74087 106.545 8.35176 105.868 8.32746C105.868 8.32746 107.093 7.78949 106.992 7.6161C106.971 7.58208 106.552 7.21425 106.552 7.21425C106.552 7.21425 105.579 8.27236 104.536 8.20269C104.536 8.20269 106.078 7.7587 106.393 7.06841L105.729 6.5515C105.729 6.5515 104.756 7.72143 103.564 7.68578C103.564 7.68578 105.169 7.16563 105.575 6.44618L104.852 6.0265C104.852 6.0265 103.89 7.14943 102.892 7.11378C102.892 7.11378 104.676 6.32465 104.681 5.94223C104.681 5.94223 103.996 5.59709 103.769 5.59385C103.769 5.59385 103.054 6.38298 102.486 6.31169C102.486 6.31169 103.622 5.65542 103.574 5.52093C103.574 5.52093 102.563 5.3119 101.993 5.48042C102.508 5.29927 103.061 5.25737 103.598 5.35889C103.415 5.07354 103.153 4.84829 102.845 4.71073C102.845 4.71073 103.442 4.56328 103.842 5.41236C103.842 5.41236 104.625 5.60843 104.708 5.71052C104.708 5.71052 104.432 4.81768 103.991 4.38665C103.991 4.38665 104.708 4.63133 104.904 5.81584L105.639 6.22094C105.639 6.22094 105.335 5.02023 104.97 4.60055C104.97 4.60055 105.664 4.96352 105.815 6.33275L106.473 6.83345C106.473 6.83345 106.29 5.77695 105.982 5.22926C105.982 5.22926 106.553 5.70566 106.656 6.98415L107.056 7.3698C107.056 7.3698 106.908 6.60174 106.847 6.3846C106.786 6.16747 106.836 6.15289 106.836 6.15289C107.091 6.57324 107.226 7.05666 107.226 7.54967C107.226 7.54967 108.002 8.39065 108.059 8.34852Z"
      fill="#3B9DCE" />
    <path opacity="0.1"
      d="M95.2819 8.63668C95.2819 8.63668 89.2001 7.95287 89.7023 12.3101C89.7023 12.3101 89.521 13.0652 90.1837 13.4444C90.1837 13.4444 90.211 13.1203 90.8256 13.2662C91.0428 13.3133 91.2646 13.3356 91.4868 13.3326C91.7868 13.3271 92.077 13.223 92.3132 13.0361C92.3132 13.0361 94.0639 12.409 94.8807 9.61378C94.8807 9.61378 95.4038 9.02233 95.3926 8.86192L94.3415 9.25405C94.3415 9.25405 94.6624 10.0205 94.3415 10.6298C94.3415 10.6298 94.3752 9.28322 94.181 9.30428C94.1409 9.30428 93.6338 9.53762 93.6338 9.53762C93.6338 9.53762 94.173 10.8744 93.6691 11.8062C93.6691 11.8062 93.9227 10.2052 93.4397 9.62836L92.6935 10.0173C92.6935 10.0173 93.3354 11.4027 92.7978 12.4786C92.7978 12.4786 93.0064 10.7967 92.5362 10.1145L91.8542 10.6006C91.8542 10.6006 92.4512 11.9634 92.0003 12.8562C92.0003 12.8562 92.0468 10.889 91.705 10.7221C91.705 10.7221 91.1048 11.2082 91.007 11.4092C91.007 11.4092 91.4129 12.3976 91.1064 12.8918C91.1064 12.8918 90.9989 11.5745 90.8577 11.5615C90.8577 11.5615 90.2415 12.3992 90.1517 12.9907C90.2073 12.4423 90.4043 11.9183 90.7229 11.4708C90.3899 11.5172 90.0776 11.6608 89.8243 11.884C89.8243 11.884 89.943 11.2763 90.8738 11.2698C90.8738 11.2698 91.3792 10.6362 91.5156 10.6022C91.5156 10.6022 90.5961 10.4774 90.0233 10.6994C90.0233 10.6994 90.5448 10.1453 91.6906 10.4677L92.3661 9.96703C92.3661 9.96703 91.145 9.71748 90.6282 9.87952C90.6282 9.87952 91.2477 9.39341 92.541 9.83901L93.268 9.4485C93.268 9.4485 92.2426 9.16979 91.6216 9.22002C91.6216 9.22002 92.2907 8.89594 93.4798 9.34479L93.9965 9.14224C93.9965 9.14224 93.2439 8.95266 93.0224 8.91701C92.801 8.88136 92.793 8.81978 92.793 8.81978C93.2781 8.76358 93.7692 8.84435 94.2115 9.05312C94.2115 9.05312 95.2931 8.70474 95.2819 8.63668Z"
      fill="#3B9DCE" />
    <path opacity="0.1"
      d="M148.493 56.3042C148.493 56.3042 142.415 55.6204 142.917 59.9728C142.917 59.9728 142.736 60.7279 143.399 61.1071C143.399 61.1071 143.426 60.783 144.04 60.9272C144.257 60.976 144.479 60.9983 144.702 60.9936C145.002 60.989 145.292 60.8848 145.528 60.6971C145.528 60.6971 147.279 60.07 148.087 57.2765C148.087 57.2765 148.611 56.6834 148.599 56.5246L147.548 56.9151C147.548 56.9151 147.869 57.6832 147.548 58.2924C147.548 58.2924 147.582 56.9443 147.388 56.967C147.348 56.967 146.841 57.1987 146.841 57.1987C146.841 57.1987 147.38 58.5355 146.876 59.4672C146.876 59.4672 147.129 57.8679 146.646 57.2894L145.9 57.6799C145.9 57.6799 146.542 59.0654 146.006 60.1413C146.006 60.1413 146.213 58.4593 145.743 57.7755L145.061 58.2617C145.061 58.2617 145.658 59.6244 145.207 60.5156C145.207 60.5156 145.254 58.5485 144.912 58.3832C144.912 58.3832 144.313 58.8693 144.214 59.0702C144.214 59.0702 144.621 60.0587 144.313 60.5529C144.313 60.5529 144.206 59.2355 144.065 59.2226C144.065 59.2226 143.448 60.0603 143.358 60.6517C143.414 60.1034 143.611 59.5794 143.93 59.1318C143.597 59.1775 143.284 59.3212 143.031 59.545C143.031 59.545 143.15 58.9357 144.081 58.9293C144.081 58.9293 144.588 58.2957 144.722 58.2633C144.722 58.2633 143.803 58.1369 143.23 58.3589C143.23 58.3589 143.752 57.8063 144.899 58.1288L145.573 57.6281C145.573 57.6281 144.366 57.398 143.841 57.5568C143.841 57.5568 144.461 57.0707 145.754 57.5147L146.481 57.1258C146.481 57.1258 145.456 56.8471 144.835 56.8973C144.835 56.8973 145.504 56.5732 146.693 57.0221L147.21 56.8179C147.21 56.8179 146.457 56.6283 146.236 56.5943C146.014 56.5603 146.006 56.4971 146.006 56.4971C146.491 56.4398 146.982 56.5201 147.425 56.7288C147.425 56.7288 148.51 56.3739 148.493 56.3042Z"
      fill="#3B9DCE" />
    <path opacity="0.1"
      d="M157.786 62.0369C157.786 62.0369 151.708 61.3547 152.21 65.7055C152.21 65.7055 152.03 66.4606 152.691 66.8398C152.691 66.8398 152.719 66.5157 153.333 66.6615C153.55 66.7091 153.771 66.7309 153.993 66.7263C154.291 66.7202 154.58 66.6167 154.816 66.4314C154.816 66.4314 156.565 65.8043 157.374 63.0092C157.374 63.0092 157.899 62.4177 157.886 62.2573L156.835 62.6478C156.835 62.6478 157.156 63.4159 156.835 64.0251C156.835 64.0251 156.868 62.6786 156.674 62.6997C156.634 62.6997 156.127 62.9314 156.127 62.9314C156.127 62.9314 156.666 64.2682 156.162 65.1999C156.162 65.1999 156.416 63.6006 155.933 63.0237L155.187 63.4126C155.187 63.4126 155.828 64.7981 155.293 65.874C155.293 65.874 155.5 64.192 155.029 63.5099L154.347 63.996C154.347 63.996 154.944 65.3587 154.495 66.2516C154.495 66.2516 154.54 64.2828 154.198 64.1175C154.198 64.1175 153.6 64.6036 153.5 64.8046C153.5 64.8046 153.908 65.793 153.6 66.2872C153.6 66.2872 153.492 64.9698 153.351 64.9569C153.351 64.9569 152.735 65.7946 152.646 66.3861C152.702 65.838 152.898 65.314 153.216 64.8661C152.883 64.9126 152.571 65.0562 152.317 65.2793C152.317 65.2793 152.438 64.6701 153.368 64.6652C153.368 64.6652 153.874 64.0316 154.01 63.9976C154.01 63.9976 153.091 63.8728 152.518 64.0948C152.518 64.0948 153.04 63.5406 154.187 63.8631L154.861 63.3624C154.861 63.3624 153.654 63.1323 153.129 63.2911C153.129 63.2911 153.749 62.805 155.042 63.2506L155.769 62.8601C155.769 62.8601 154.744 62.5814 154.123 62.6316C154.123 62.6316 154.792 62.3075 155.981 62.7564L156.498 62.5538C156.498 62.5538 155.745 62.3642 155.525 62.3286C155.305 62.2929 155.294 62.2314 155.294 62.2314C155.779 62.1752 156.27 62.2559 156.713 62.4647C156.713 62.4647 157.802 62.1066 157.786 62.0369Z"
      fill="#3B9DCE" />
    <path opacity="0.1"
      d="M137.155 13.7475C137.155 13.7475 132.257 10.0482 130.506 14.0554C130.506 14.0554 129.972 14.6144 130.356 15.2837C130.356 15.2837 130.539 15.0228 130.997 15.4554C131.16 15.6081 131.34 15.7408 131.533 15.8508C131.796 15.998 132.098 16.0549 132.395 16.0128C132.395 16.0128 134.218 16.3677 136.319 14.373C136.319 14.373 137.066 14.1299 137.137 13.9873L136.035 13.7864C136.035 13.7864 135.919 14.6079 135.349 14.9758C135.349 14.9758 136.054 13.8318 135.871 13.7491C135.834 13.7313 135.284 13.6681 135.284 13.6681C135.284 13.6681 135.077 15.0973 134.178 15.6369C134.178 15.6369 135.2 14.3876 135.073 13.6422L134.234 13.5968C134.234 13.5968 134.091 15.1184 133.09 15.773C133.09 15.773 134.114 14.4297 134.053 13.6001L133.222 13.6681C133.222 13.6681 133.061 15.1475 132.217 15.6855C132.217 15.6855 133.244 14.0133 133.032 13.6957C133.032 13.6957 132.273 13.8042 132.085 13.9306C132.085 13.9306 131.941 14.9904 131.428 15.2593C131.428 15.2593 131.996 14.0684 131.88 13.9857C131.88 13.9857 130.928 14.3924 130.555 14.8559C130.878 14.4121 131.311 14.0614 131.809 13.8383C131.499 13.708 131.158 13.6719 130.827 13.7346C130.827 13.7346 131.237 13.2711 132.042 13.7427C132.042 13.7427 132.795 13.4558 132.923 13.4915C132.923 13.4915 132.193 12.913 131.588 12.8125C131.588 12.8125 132.317 12.6019 133.143 13.4607L133.976 13.3748C133.976 13.3748 133.051 12.5646 132.519 12.4285C132.519 12.4285 133.294 12.3297 134.188 13.37L135.011 13.4072C135.011 13.4072 134.266 12.6424 133.706 12.3669C133.706 12.3669 134.444 12.4318 135.245 13.4251L135.792 13.5142C135.792 13.5142 135.239 12.9665 135.065 12.8239C134.892 12.6813 134.918 12.6343 134.918 12.6343C135.363 12.8343 135.746 13.1551 136.022 13.5612C136.022 13.5612 137.134 13.814 137.155 13.7475Z"
      fill="#3B9DCE" />
    <path opacity="0.1"
      d="M140.939 40.4549C140.939 40.4549 139.251 34.5194 135.454 36.6502C135.454 36.6502 134.693 36.7685 134.599 37.5366C134.599 37.5366 134.9 37.441 135.005 38.0616C135.043 38.2845 135.108 38.5021 135.197 38.7097C135.316 38.989 135.522 39.2212 135.785 39.3709C135.785 39.3709 137.027 40.7644 139.893 40.4533C139.893 40.4533 140.634 40.7158 140.775 40.6445L140.016 39.8116C140.016 39.8116 139.434 40.3982 138.76 40.3431C138.76 40.3431 140.005 39.857 139.909 39.6836C139.889 39.6479 139.488 39.2607 139.488 39.2607C139.488 39.2607 138.471 40.275 137.431 40.1567C137.431 40.1567 138.992 39.7841 139.336 39.1132L138.694 38.5655C138.694 38.5655 137.67 39.6901 136.481 39.6026C136.481 39.6026 138.098 39.1537 138.545 38.4553L137.842 38.0032C137.842 38.0032 136.823 39.0808 135.834 38.9998C135.834 38.9998 137.652 38.2917 137.675 37.9109C137.675 37.9109 137.004 37.5349 136.778 37.522C136.778 37.522 136.028 38.2771 135.459 38.1799C135.459 38.1799 136.624 37.5755 136.582 37.4393C136.582 37.4393 135.581 37.1849 135.005 37.3259C135.526 37.1697 136.079 37.1535 136.609 37.2789C136.44 36.9857 136.189 36.7491 135.887 36.5984C135.887 36.5984 136.491 36.4768 136.85 37.3437C136.85 37.3437 137.622 37.5738 137.702 37.6808C137.702 37.6808 137.466 36.775 137.044 36.3261C137.044 36.3261 137.75 36.6016 137.893 37.7942L138.609 38.2333C138.609 38.2333 138.358 37.018 138.012 36.5903C138.012 36.5903 138.689 36.984 138.78 38.3581L139.422 38.888C139.422 38.888 139.286 37.825 139.004 37.2676C139.004 37.2676 139.554 37.7699 139.599 39.05L139.981 39.4551C139.981 39.4551 139.868 38.6806 139.82 38.4602C139.772 38.2398 139.82 38.209 139.82 38.209C140.058 38.64 140.172 39.1293 140.149 39.622C140.149 39.622 140.881 40.4938 140.939 40.4549Z"
      fill="#3B9DCE" />
    <path opacity="0.1"
      d="M103.321 53.8297C103.321 53.8297 100.043 48.6153 96.9987 51.7362C96.9987 51.7362 96.3023 52.0603 96.4242 52.8299C96.4242 52.8299 96.689 52.6517 96.9618 53.2188C97.0598 53.4198 97.1816 53.6081 97.3245 53.7795C97.5158 54.0134 97.778 54.1774 98.0707 54.2462C98.0707 54.2462 99.6513 55.2314 102.315 54.1165C102.315 54.1165 103.1 54.1587 103.215 54.0501L102.253 53.4668C102.253 53.4668 101.856 54.1959 101.193 54.3337C101.193 54.3337 102.256 53.5235 102.113 53.3744C102.086 53.3452 101.591 53.0892 101.591 53.0892C101.591 53.0892 100.897 54.3499 99.8663 54.533C99.8663 54.533 101.261 53.7309 101.405 52.9887L100.637 52.6468C100.637 52.6468 99.9674 54.0161 98.8024 54.2672C98.8024 54.2672 100.231 53.3776 100.463 52.5804L99.6609 52.3471C99.6609 52.3471 98.9837 53.6709 98.0129 53.8735C98.0129 53.8735 99.5598 52.6776 99.4748 52.3049C99.4748 52.3049 98.727 52.1348 98.512 52.1866C98.512 52.1866 98.0033 53.1249 97.4288 53.1929C97.4288 53.1929 98.3788 52.2822 98.3001 52.1623C98.3001 52.1623 97.2683 52.2029 96.7548 52.5026C97.2129 52.203 97.7407 52.0298 98.2857 52.0003C98.0417 51.7671 97.7355 51.6111 97.4047 51.5515C97.4047 51.5515 97.9487 51.2646 98.528 51.9938C98.528 51.9938 99.3304 51.9938 99.4411 52.0748C99.4411 52.0748 98.9597 51.2646 98.4317 50.9616C98.4317 50.9616 99.1859 51.0264 99.6545 52.1299L100.465 52.3471C100.465 52.3471 99.8856 51.2533 99.4347 50.9406C99.4347 50.9406 100.194 51.1253 100.664 52.42L101.421 52.7441C101.421 52.7441 100.994 51.7637 100.566 51.3052C100.566 51.3052 101.234 51.6292 101.633 52.8461L102.115 53.1265C102.115 53.1265 101.794 52.4151 101.68 52.2191C101.566 52.023 101.611 51.9776 101.611 51.9776C101.958 52.324 102.203 52.761 102.318 53.2399C102.318 53.2399 103.278 53.8848 103.321 53.8297Z"
      fill="#3B9DCE" />
    <path
      d="M124.867 27.1869C124.867 27.1869 121.749 21.8736 118.609 24.8973C118.609 24.8973 117.903 25.2052 118.002 25.9732C118.002 25.9732 118.27 25.8015 118.527 26.3767C118.619 26.5812 118.735 26.7738 118.872 26.9503C119.056 27.1893 119.314 27.3602 119.604 27.4364C119.604 27.4364 121.152 28.4703 123.85 27.4364C123.85 27.4364 124.633 27.5029 124.752 27.3975L123.81 26.785C123.81 26.785 123.392 27.4996 122.725 27.6179C122.725 27.6179 123.811 26.8353 123.675 26.6878C123.646 26.657 123.161 26.3848 123.161 26.3848C123.161 26.3848 122.428 27.6244 121.396 27.7751C121.396 27.7751 122.815 27.0168 122.98 26.2811L122.223 25.9214C122.223 25.9214 121.512 27.2712 120.339 27.4867C120.339 27.4867 121.794 26.6424 122.051 25.8533L121.258 25.594C121.258 25.594 120.539 26.8904 119.564 27.0686C119.564 27.0686 121.146 25.9214 121.072 25.5471C121.072 25.5471 120.331 25.3526 120.109 25.398C120.109 25.398 119.572 26.32 118.996 26.3702C118.996 26.3702 119.973 25.492 119.899 25.3688C119.899 25.3688 118.866 25.3769 118.344 25.6605C118.811 25.3759 119.344 25.2195 119.889 25.2068C119.652 24.9659 119.35 24.8003 119.021 24.7304C119.021 24.7304 119.575 24.4598 120.145 25.2068C120.145 25.2068 120.947 25.2343 121.054 25.317C121.054 25.317 120.6 24.5068 120.08 24.173C120.08 24.173 120.831 24.2605 121.266 25.3785L122.069 25.6216C122.069 25.6216 121.525 24.51 121.082 24.1827C121.082 24.1827 121.836 24.3917 122.266 25.6994L123.012 26.051C123.012 26.051 122.616 25.0577 122.21 24.5926C122.21 24.5926 122.866 24.9378 123.23 26.166L123.701 26.461C123.701 26.461 123.399 25.7399 123.293 25.5406C123.187 25.3413 123.232 25.2975 123.232 25.2975C123.568 25.6545 123.8 26.0988 123.901 26.5809C123.901 26.5809 124.821 27.2404 124.867 27.1869Z"
      fill="#3B9DCE" />
    <path
      d="M105.141 38.3598C105.141 38.3598 105.302 32.1861 101.054 33.0562C101.054 33.0562 100.293 32.9379 99.9724 33.6412C99.9724 33.6412 100.293 33.6412 100.203 34.265C100.174 34.4875 100.171 34.7127 100.194 34.9359C100.223 35.2386 100.35 35.5234 100.555 35.7461C100.555 35.7461 101.32 37.454 104.146 38.0341C104.146 38.0341 104.774 38.5121 104.931 38.4862L104.45 37.4621C104.45 37.4621 103.719 37.8412 103.092 37.5836C103.092 37.5836 104.424 37.5042 104.387 37.3065C104.387 37.266 104.111 36.7734 104.111 36.7734C104.111 36.7734 102.837 37.4297 101.882 36.9986C101.882 36.9986 103.487 37.1202 104.011 36.5871L103.564 35.8692C103.564 35.8692 102.251 36.6276 101.144 36.1803C101.144 36.1803 102.821 36.2484 103.456 35.7185L102.922 35.0704C102.922 35.0704 101.627 35.7866 100.709 35.4074C100.709 35.4074 102.654 35.2891 102.795 34.931C102.795 34.931 102.269 34.3687 102.057 34.2829C102.057 34.2829 101.117 34.769 100.603 34.5065C100.603 34.5065 101.887 34.2893 101.895 34.1451C101.895 34.1451 101.017 33.5958 100.425 33.5553C100.971 33.5651 101.505 33.7193 101.973 34.0025C101.9 33.6713 101.733 33.3689 101.492 33.1324C101.492 33.1324 102.103 33.202 102.187 34.137C102.187 34.137 102.856 34.594 102.899 34.7204C102.899 34.7204 102.946 33.7854 102.678 33.228C102.678 33.228 103.268 33.706 103.047 34.8856L103.597 35.5241C103.597 35.5241 103.723 34.2893 103.522 33.7757C103.522 33.7757 104.048 34.3574 103.724 35.6958L104.169 36.3942C104.169 36.3942 104.358 35.3394 104.257 34.7187C104.257 34.7187 104.629 35.3669 104.289 36.6L104.533 37.1023C104.533 37.1023 104.657 36.3294 104.673 36.1042C104.689 35.8789 104.75 35.8644 104.75 35.8644C104.846 36.3477 104.808 36.8487 104.639 37.3114C104.639 37.3114 105.071 38.3808 105.141 38.3598Z"
      fill="#3B9DCE" />
    <path opacity="0.1"
      d="M112.163 116.806C114.55 116.806 116.485 116.476 116.485 116.069C116.485 115.662 114.55 115.332 112.163 115.332C109.777 115.332 107.842 115.662 107.842 116.069C107.842 116.476 109.777 116.806 112.163 116.806Z"
      fill="#3B9DCE" />
    <path opacity="0.1"
      d="M96.4103 128C98.797 128 100.732 127.67 100.732 127.263C100.732 126.855 98.797 126.525 96.4103 126.525C94.0236 126.525 92.0889 126.855 92.0889 127.263C92.0889 127.67 94.0236 128 96.4103 128Z"
      fill="#3B9DCE" />
    <path opacity="0.1"
      d="M14.9455 122.266C17.3321 122.266 19.2669 121.935 19.2669 121.528C19.2669 121.121 17.3321 120.791 14.9455 120.791C12.5588 120.791 10.624 121.121 10.624 121.528C10.624 121.935 12.5588 122.266 14.9455 122.266Z"
      fill="#3B9DCE" />
    <path opacity="0.1"
      d="M129.187 127.263C131.574 127.263 133.508 126.933 133.508 126.525C133.508 126.118 131.574 125.788 129.187 125.788C126.8 125.788 124.865 126.118 124.865 126.525C124.865 126.933 126.8 127.263 129.187 127.263Z"
      fill="#3B9DCE" />
    <path
      d="M133.687 118.273C137.25 118.273 140.139 117.779 140.139 117.171C140.139 116.562 137.25 116.069 133.687 116.069C130.123 116.069 127.234 116.562 127.234 117.171C127.234 117.779 130.123 118.273 133.687 118.273Z"
      fill="#3B9DCE" />
    <path
      d="M136.362 115.368C136.657 115.126 136.871 114.799 136.977 114.431C137.057 114.058 136.9 113.613 136.548 113.477C136.154 113.324 135.732 113.6 135.411 113.879C135.09 114.157 134.725 114.476 134.307 114.418C134.522 114.221 134.682 113.971 134.774 113.692C134.865 113.414 134.883 113.116 134.827 112.829C134.808 112.709 134.758 112.597 134.682 112.504C134.462 112.268 134.066 112.37 133.803 112.556C132.968 113.149 132.736 114.293 132.731 115.324C132.647 114.953 132.718 114.566 132.716 114.19C132.715 113.814 132.61 113.379 132.291 113.182C132.095 113.071 131.874 113.015 131.649 113.02C131.274 113.007 130.855 113.044 130.6 113.321C130.279 113.665 130.364 114.243 130.64 114.617C130.916 114.992 131.338 115.233 131.726 115.496C132.037 115.683 132.302 115.938 132.503 116.243C132.526 116.285 132.545 116.33 132.559 116.376H134.912C135.438 116.108 135.926 115.769 136.362 115.368Z"
      fill="#3B9DCE" />
    <path
      d="M12.0447 118.101C12.0447 118.101 14.5079 118.025 15.2541 117.49C16.0002 116.955 19.0459 116.319 19.2305 117.176C19.415 118.033 22.9341 121.436 20.1516 121.459C17.369 121.481 13.6863 121.021 12.9449 120.564C12.2035 120.107 12.0447 118.101 12.0447 118.101Z"
      fill="#A8A8A8" />
    <path opacity="0.2"
      d="M20.1981 121.16C17.4156 121.183 13.7328 120.723 12.9914 120.266C12.4266 119.919 12.2019 118.673 12.1265 118.098H12.0447C12.0447 118.098 12.2051 120.105 12.9417 120.561C13.6783 121.016 17.3658 121.478 20.1484 121.455C20.9507 121.455 21.2283 121.16 21.2139 120.732C21.1015 120.993 20.7951 121.155 20.1981 121.16Z"
      fill="black" />
  </g>
  <defs>
    <linearGradient id="paint0_linear_2_10613" x1="35.7829" y1="70.2311" x2="85.8701" y2="70.2311"
      gradientUnits="userSpaceOnUse">
      <stop stop-color="#808080" stop-opacity="0.25" />
      <stop offset="0.54" stop-color="#808080" stop-opacity="0.12" />
      <stop offset="1" stop-color="#808080" stop-opacity="0.1" />
    </linearGradient>
    <clipPath id="clip0_2_10613">
      <rect width="162" height="128" fill="white" />
    </clipPath>
  </defs>
</svg>