<svg width="19" height="20" viewBox="0 0 19 20" fill="none" xmlns="http://www.w3.org/2000/svg">
<path d="M8.05 0.543209C8.45577 0.192401 8.96935 0 9.5 0C10.0307 0 10.5442 0.192401 10.95 0.543209L17.7 6.38527C18.208 6.8233 18.5 7.46854 18.5 8.14969V18.2048C18.5 18.6809 18.3156 19.1375 17.9874 19.4742C17.6592 19.8109 17.2141 20 16.75 20H13.75C13.2859 20 12.8408 19.8109 12.5126 19.4742C12.1844 19.1375 12 18.6809 12 18.2048V13.0757C12 12.8716 11.921 12.676 11.7803 12.5317C11.6397 12.3874 11.4489 12.3063 11.25 12.3063H7.75C7.55109 12.3063 7.36032 12.3874 7.21967 12.5317C7.07902 12.676 7 12.8716 7 13.0757V18.2048C7 18.6809 6.81563 19.1375 6.48744 19.4742C6.15925 19.8109 5.71413 20 5.25 20H2.25C2.02019 20 1.79262 19.9536 1.5803 19.8633C1.36798 19.7731 1.17507 19.6409 1.01256 19.4742C0.850061 19.3075 0.721157 19.1096 0.633211 18.8918C0.545265 18.674 0.5 18.4406 0.5 18.2048V8.14866C0.5 7.46854 0.792 6.8233 1.3 6.38425L8.05 0.543209Z" fill="url(#paint0_linear_2_10436)"/>
<defs>
<linearGradient id="paint0_linear_2_10436" x1="9.5" y1="0" x2="9.5" y2="20" gradientUnits="userSpaceOnUse">
<stop stop-color="#47ADE7"/>
<stop offset="1" stop-color="#93D4FA"/>
</linearGradient>
</defs>
</svg>
