<svg width="149" height="111" viewBox="0 0 149 111" fill="none" xmlns="http://www.w3.org/2000/svg">
  <path d="M6.15469 105.549H21.8029V109.612H0V106.313L15.1454 84.4296H0.100567V80.3264H21.3202V83.5446L6.15469 105.549Z"
    fill="#4FB1E9" />
  <path
    d="M30.9143 109.612H26.0267V87.8489H30.9143V109.612ZM25.725 82.1969C25.725 81.446 25.9597 80.8225 26.429 80.3264C26.9117 79.8302 27.5956 79.5822 28.4805 79.5822C29.3655 79.5822 30.0494 79.8302 30.5321 80.3264C31.0148 80.8225 31.2562 81.446 31.2562 82.1969C31.2562 82.9344 31.0148 83.5513 30.5321 84.0474C30.0494 84.5301 29.3655 84.7715 28.4805 84.7715C27.5956 84.7715 26.9117 84.5301 26.429 84.0474C25.9597 83.5513 25.725 82.9344 25.725 82.1969Z"
    fill="#4FB1E9" />
  <path
    d="M35.3392 98.5694C35.3392 95.2172 36.1169 92.5286 37.6724 90.5039C39.2278 88.4657 41.3129 87.4466 43.9276 87.4466C46.2339 87.4466 48.0978 88.2511 49.5191 89.8602V78.7173H54.4067V109.612H49.9817L49.7404 107.359C48.2788 109.129 46.3278 110.014 43.8874 110.014C41.3397 110.014 39.2747 108.988 37.6925 106.937C36.1236 104.885 35.3392 102.096 35.3392 98.5694ZM40.2268 98.9918C40.2268 101.204 40.6491 102.934 41.4939 104.181C42.3521 105.415 43.5656 106.032 45.1344 106.032C47.1323 106.032 48.5939 105.14 49.5191 103.356V94.064C48.6207 92.3208 47.1726 91.4492 45.1746 91.4492C43.5924 91.4492 42.3722 92.0794 41.514 93.3399C40.6558 94.5869 40.2268 96.4709 40.2268 98.9918Z"
    fill="#4FB1E9" />
  <path
    d="M59.9766 109.611V80.3259H68.6253C71.2132 80.3259 73.5062 80.9025 75.5041 82.0557C77.5154 83.2088 79.0709 84.8447 80.1704 86.9634C81.2699 89.082 81.8197 91.5091 81.8197 94.2445V95.7128C81.8197 98.4885 81.2632 100.929 80.1503 103.034C79.0508 105.139 77.4752 106.762 75.4236 107.902C73.3855 109.041 71.0456 109.611 68.4041 109.611H59.9766ZM65.0652 84.4291V105.548H68.384C71.0523 105.548 73.0972 104.717 74.5185 103.054C75.9533 101.378 76.6841 98.9779 76.7109 95.8536V94.2244C76.7109 91.0464 76.0203 88.6194 74.6392 86.9433C73.2581 85.2671 71.2535 84.4291 68.6253 84.4291H65.0652Z"
    fill="#76C6F3" />
  <path
    d="M95.9996 110.014C92.9022 110.014 90.388 109.041 88.4571 107.097C86.5396 105.139 85.5809 102.538 85.5809 99.293V98.6896C85.5809 96.5173 85.9966 94.5797 86.8279 92.8768C87.6727 91.1604 88.8527 89.8262 90.3679 88.8742C91.8831 87.9221 93.5726 87.4461 95.4365 87.4461C98.3998 87.4461 100.686 88.3914 102.295 90.2821C103.918 92.1728 104.729 94.8479 104.729 98.3075V100.279H90.5087C90.6562 102.075 91.2529 103.497 92.2988 104.543C93.3581 105.589 94.6855 106.112 96.2812 106.112C98.5205 106.112 100.344 105.206 101.752 103.396L104.387 105.91C103.515 107.211 102.349 108.223 100.887 108.948C99.439 109.658 97.8098 110.014 95.9996 110.014ZM95.4163 91.3683C94.0754 91.3683 92.9893 91.8376 92.158 92.7762C91.34 93.7148 90.8171 95.0222 90.5891 96.6984H99.9016V96.3363C99.7943 94.7004 99.3586 93.4668 98.5942 92.6354C97.8299 91.7906 96.7706 91.3683 95.4163 91.3683Z"
    fill="#76C6F3" />
  <path
    d="M120.739 103.698C120.739 102.826 120.377 102.163 119.653 101.707C118.942 101.251 117.756 100.848 116.093 100.5C114.43 100.151 113.042 99.7087 111.929 99.1723C109.489 97.9923 108.269 96.2827 108.269 94.0434C108.269 92.1661 109.06 90.5972 110.642 89.3368C112.224 88.0763 114.236 87.4461 116.676 87.4461C119.278 87.4461 121.376 88.0897 122.972 89.377C124.581 90.6643 125.385 92.3337 125.385 94.3853H120.498C120.498 93.4467 120.149 92.6689 119.452 92.0521C118.755 91.4219 117.829 91.1068 116.676 91.1068C115.603 91.1068 114.725 91.3548 114.041 91.851C113.371 92.3471 113.036 93.0109 113.036 93.8422C113.036 94.5931 113.351 95.1764 113.981 95.5921C114.611 96.0078 115.885 96.4302 117.803 96.8593C119.72 97.275 121.222 97.7778 122.308 98.3678C123.407 98.9444 124.219 99.6417 124.742 100.46C125.278 101.278 125.546 102.27 125.546 103.436C125.546 105.394 124.735 106.983 123.112 108.203C121.49 109.41 119.365 110.014 116.737 110.014C114.953 110.014 113.364 109.692 111.97 109.048C110.575 108.404 109.489 107.519 108.711 106.393C107.934 105.267 107.545 104.053 107.545 102.753H112.291C112.359 103.906 112.794 104.797 113.599 105.428C114.403 106.044 115.469 106.353 116.797 106.353C118.084 106.353 119.063 106.112 119.733 105.629C120.404 105.133 120.739 104.489 120.739 103.698Z"
    fill="#76C6F3" />
  <path
    d="M136.89 100.279L134.718 102.511V109.611H129.83V78.7168H134.718V96.5375L136.246 94.6267L142.26 87.8484H148.133L140.048 96.9196L148.998 109.611H143.347L136.89 100.279Z"
    fill="#76C6F3" />
  <path fill-rule="evenodd" clip-rule="evenodd"
    d="M98.0054 62.4971C105.517 55.9683 110.266 46.3438 110.266 35.61C110.266 15.9432 94.3228 0 74.6559 0C54.989 0 39.0459 15.9432 39.0459 35.61C39.0459 46.3424 43.7938 55.966 51.3037 62.4947V31.916L74.6545 16.3457L98.0054 31.916V62.4971Z"
    fill="#4FB1E9" />
  <path
    d="M62.9805 38.8211V31.5239H86.0394V36.7779L73.7802 54.5829H86.3313V61.88H62.9805V56.6261L75.2397 38.8211H62.9805Z"
    fill="#76C6F3" />
</svg>