<svg width="20" height="23" viewBox="0 0 20 23" fill="none" xmlns="http://www.w3.org/2000/svg">
  <path
    d="M11.5359 2.89283L11.5354 2.89099C11.2595 1.9064 10.5519 1.25293 9.80561 1.25293C9.05946 1.25293 8.35178 1.90683 8.07919 2.89014L8.07869 2.89194C7.93519 3.40462 7.52784 3.80846 7.09961 3.99303M11.5359 2.89283L12.5147 3.99315C13.3724 4.36344 14.2688 4.9068 14.9574 5.85122C15.6424 6.79067 16.1732 8.19779 16.1732 10.3867C16.1732 12.9554 16.4278 14.5611 16.9086 15.7825C17.3278 16.8475 17.9112 17.5852 18.5089 18.341C18.5959 18.4509 18.6831 18.5612 18.7702 18.6729C18.9813 18.9445 18.8011 19.3628 18.4049 19.3628H1.21184C0.803231 19.3628 0.630885 18.9426 0.840985 18.673L0.841026 18.6729C0.928156 18.5611 1.01544 18.4508 1.10242 18.3408C1.70014 17.5851 2.28346 16.8475 2.70291 15.7827C3.18403 14.5614 3.43939 12.9558 3.4408 10.3871V10.3867C3.4408 8.19513 3.97116 6.78846 4.65567 5.85C5.34386 4.9065 6.24012 4.36417 7.09961 3.99303M11.5359 2.89283C11.6786 3.39721 12.0822 3.80683 12.5146 3.99312L11.5359 2.89283ZM7.09961 3.99303C7.09952 3.99307 7.09942 3.99311 7.09932 3.99315L6.8026 3.30434L7.09991 3.9929C7.09981 3.99294 7.09971 3.99298 7.09961 3.99303Z"
    stroke="white" stroke-width="1.5" stroke-linecap="round" stroke-linejoin="round" />
  <mask id="path-2-inside-1_2_10383" fill="white">
    <path
      d="M13.4819 19.3232V20.0586C13.4819 20.8387 13.0945 21.5869 12.405 22.1386C11.7154 22.6902 10.7802 23.0001 9.80503 23.0001C8.82987 23.0001 7.89464 22.6902 7.2051 22.1386C6.51556 21.5869 6.12817 20.8387 6.12817 20.0586V19.3232" />
  </mask>
  <path
    d="M14.9819 19.3232C14.9819 18.4948 14.3103 17.8232 13.4819 17.8232C12.6535 17.8232 11.9819 18.4948 11.9819 19.3232H14.9819ZM6.12817 20.0586H4.62817H6.12817ZM7.62817 19.3232C7.62817 18.4948 6.9566 17.8232 6.12817 17.8232C5.29975 17.8232 4.62817 18.4948 4.62817 19.3232H7.62817ZM11.9819 19.3232V20.0586H14.9819V19.3232H11.9819ZM11.9819 20.0586C11.9819 20.3191 11.8547 20.6578 11.4679 20.9673L13.342 23.3099C14.3343 22.516 14.9819 21.3583 14.9819 20.0586H11.9819ZM11.4679 20.9673C11.0724 21.2837 10.4773 21.5001 9.80503 21.5001V24.5001C11.083 24.5001 12.3584 24.0967 13.342 23.3099L11.4679 20.9673ZM9.80503 21.5001C9.13271 21.5001 8.53765 21.2837 8.14214 20.9673L6.26806 23.3099C7.25163 24.0967 8.52702 24.5001 9.80503 24.5001V21.5001ZM8.14214 20.9673C7.75532 20.6578 7.62817 20.3191 7.62817 20.0586H4.62817C4.62817 21.3583 5.27579 22.516 6.26806 23.3099L8.14214 20.9673ZM7.62817 20.0586V19.3232H4.62817V20.0586H7.62817Z"
    fill="white" mask="url(#path-2-inside-1_2_10383)" />
</svg>