<svg width="11" height="17" viewBox="0 0 11 17" fill="none" xmlns="http://www.w3.org/2000/svg">
<path d="M2.43798 1.21568L3.20654 0.953583C3.92797 0.708252 4.69724 1.1052 5.00653 1.88081L5.62009 3.42594C5.88723 4.09869 5.73938 4.89031 5.25295 5.38249L3.90011 6.75238C3.98297 7.57218 4.24153 8.37903 4.67439 9.17293C5.08566 9.94108 5.63725 10.6134 6.29651 11.1501L7.9215 10.571C8.53792 10.3523 9.20863 10.6045 9.58577 11.1965L10.4665 12.5756C10.9058 13.2643 10.8272 14.2136 10.2822 14.7973L9.69791 15.4228C9.11649 16.0452 8.28578 16.2715 7.51793 16.0155C5.70438 15.4121 4.03725 13.6209 2.51584 10.6419C0.99228 7.65828 0.454428 5.12573 0.902995 3.04728C1.09156 2.17262 1.67513 1.47548 2.43798 1.21568Z" fill="#C4C4C4"/>
</svg>
