<svg width="19" height="20" viewBox="0 0 19 20" fill="none" xmlns="http://www.w3.org/2000/svg">
<path d="M13.8929 5C13.8929 7.32773 11.9465 9.25 9.5 9.25C7.05353 9.25 5.10714 7.32773 5.10714 5C5.10714 2.67227 7.05353 0.75 9.5 0.75C11.9465 0.75 13.8929 2.67227 13.8929 5ZM9.5 12.625C10.5956 12.625 11.6393 12.3993 12.5848 12H13.1C15.6871 12 17.75 14.0356 17.75 16.5V18.125C17.75 18.7262 17.242 19.25 16.5714 19.25H2.42857C1.758 19.25 1.25 18.7262 1.25 18.125V16.5C1.25 14.0356 3.31291 12 5.9 12H6.41575C7.36339 12.3989 8.40345 12.625 9.5 12.625Z" stroke="#E0E0E0" stroke-width="1.5"/>
</svg>
