<svg width="51" height="48" viewBox="0 0 51 48" fill="none" xmlns="http://www.w3.org/2000/svg">
<path d="M34.3725 44.8702C34.1282 44.7177 33.3674 44.5239 33.1579 44.3647L28.865 47.1622L25.3747 43.6999L28.3763 38.9567C28.2646 38.7559 28.2857 38.7213 28.1879 38.5066L22.6592 37.5303L22.6801 32.1916L26.7148 31.4991L24.7045 29.5532C23.0291 30.9106 20.9769 31.7138 18.785 31.7138H18.778H18.7711C16.6977 31.7138 14.7573 30.9937 13.1377 29.775L11.0926 31.7138H7.09275C5.24991 31.7138 3.80495 32.337 2.6811 33.6319C-0.606701 37.3987 -0.0553837 45.5141 0.203033 48H34.9727L34.3725 44.8702ZM10.4575 21.6734C10.7226 23.9377 11.6791 25.9525 13.0751 27.4276C13.3683 27.7392 13.6755 28.0231 14.0034 28.2793C14.4222 28.6115 14.862 28.8954 15.3297 29.1378C16.3837 29.6779 17.5426 29.9895 18.778 29.9895C20.0134 29.9895 21.1723 29.6779 22.2264 29.1378C22.6941 28.8954 23.1339 28.6115 23.5527 28.2793C23.8808 28.0162 24.1949 27.7323 24.4881 27.4207C25.8772 25.9458 26.8335 23.9515 27.0988 21.7011C27.1265 21.7011 27.1476 21.708 27.1755 21.708C28.6273 21.708 29.8072 20.3647 29.8072 18.7098C29.8072 17.7057 29.3744 16.8263 28.7112 16.2793H9.29174C8.62859 16.8263 8.1958 17.7057 8.1958 18.7098C8.1958 20.2331 9.18005 21.4726 10.4575 21.6734ZM51 35.9723V33.6665L46.1627 32.8009C45.9463 31.9077 45.5901 31.0767 45.1226 30.3151L47.9357 26.3266L46.2882 24.6924L42.2536 27.4761C41.4858 27.0121 40.6411 26.6591 39.7476 26.4514L38.889 21.6597H36.5647L35.6921 26.4583C34.7916 26.673 33.954 27.0261 33.1861 27.49L29.1654 24.6995L27.518 26.3337L30.3242 30.336C29.8565 31.0977 29.5005 31.9355 29.291 32.8218L24.4606 33.6734V35.9792L29.298 36.8448C29.5144 37.738 29.8704 38.569 30.338 39.3306L27.518 43.3191L29.1654 44.9533L33.2 42.1696C33.9678 42.6336 34.8126 42.9866 35.7059 43.1943L36.5645 47.9862H38.8889L39.7615 43.1875C40.6619 42.9729 41.4996 42.6197 42.2674 42.1558L46.2882 44.9463L47.9357 43.3122L45.1294 39.3099C45.5973 38.5482 45.9531 37.7103 46.1625 36.824L51 35.9723ZM37.7232 38.3819C35.7407 38.3819 34.1352 36.7892 34.1352 34.8228C34.1352 32.8563 35.7407 31.2637 37.7232 31.2637C39.7056 31.2637 41.3111 32.8563 41.3111 34.8228C41.3111 36.7892 39.7056 38.3819 37.7232 38.3819ZM15.0925 3.43451C12.1886 4.90248 9.89918 7.83843 9.0336 10.6913L8.83815 11.3006H7.24646V14.7628H8.97748H11.4347H12.4677H25.926H26.9312H30.7564V14.5967V11.3006H29.1929L28.9974 10.6913C28.1319 7.83843 25.8423 4.93018 22.9384 3.4622V9.97115V10.8852C22.9384 10.9406 22.9384 10.9683 22.9384 10.996C22.9105 11.3006 22.8546 11.5776 22.715 11.8546C22.3519 12.547 21.6261 13.0456 20.7884 13.0456H20.3417H17.2703C16.4883 13.0456 15.7903 12.6301 15.4274 12.0208C15.2599 11.7715 15.1761 11.4945 15.1203 11.1898C15.0924 11.0791 15.0924 10.996 15.0924 10.8852V10.1096V3.43451H15.0925ZM17.2704 12.1316H20.7606C21.2632 12.1316 21.6821 11.8546 21.9054 11.4391C22.0171 11.2452 22.0728 11.0514 22.0728 10.8298V10.5805V9.55568V3.01904V2.07732V1.71725C22.0728 1.49567 22.0171 1.30179 21.9611 1.10791C21.7098 0.47086 21.0678 0 20.3417 0H17.2703C16.6001 0 16.0417 0.498557 15.9859 1.1356C15.9859 1.191 15.9579 1.24639 15.9579 1.30179V2.07732V3.01904V9.66648V10.719V10.8298C15.9579 11.1068 16.0418 11.356 16.1815 11.5776C16.4327 11.91 16.8237 12.1316 17.2704 12.1316Z" fill="url(#paint0_linear_2_10390)"/>
<defs>
<linearGradient id="paint0_linear_2_10390" x1="25.5" y1="0" x2="25.5" y2="48" gradientUnits="userSpaceOnUse">
<stop stop-color="#47ADE7"/>
<stop offset="1" stop-color="#93D4FA"/>
</linearGradient>
</defs>
</svg>
