<svg width="110" height="110" viewBox="0 0 110 110" fill="none" xmlns="http://www.w3.org/2000/svg">
<path d="M45.6609 89.5559C44.2748 88.1699 42.0283 88.1699 40.6422 89.5559L31.3455 98.8525C29.9595 100.236 29.9595 102.485 31.3455 103.869C32.7219 105.25 34.9711 105.262 36.3642 103.869L45.6609 94.5724C47.047 93.1861 47.047 90.9398 45.6609 89.5559ZM20.4433 64.3382C19.0594 62.9521 16.8129 62.9521 15.4268 64.3382L6.13013 73.6348C4.74406 75.0209 4.74406 77.2674 6.13013 78.6535C7.51398 80.0371 9.75698 80.0431 11.1466 78.6535L20.4433 69.3568C21.8293 67.971 21.8293 65.7242 20.4433 64.3382ZM37.2558 72.7435C35.8697 71.3574 33.6231 71.3596 32.2371 72.7435L8.67606 96.3044C7.28999 97.6905 7.28999 99.937 8.67606 101.323C10.0617 102.704 12.3038 102.71 13.6948 101.323L37.2558 77.7622C38.6418 76.3761 38.6418 74.1296 37.2558 72.7435ZM109.819 4.6555L76.1944 107.557C75.2439 110.462 71.2968 110.885 69.7542 108.238L47.1423 69.3504C46.4282 68.124 46.5147 66.5916 47.3597 65.4517L55.4787 54.5206L44.5476 62.6396C43.4077 63.4846 41.8753 63.5711 40.6489 62.857L1.76123 40.245C-0.876964 38.7106 -0.471122 34.7582 2.44207 33.8048L105.344 0.179949C108.094 -0.717557 110.721 1.89357 109.819 4.6555Z" fill="#47ADE7"/>
</svg>
