<svg width="29" height="27" viewBox="0 0 29 27" fill="none" xmlns="http://www.w3.org/2000/svg">
<path d="M28.4115 9.30449L25.8371 6.82195C25.6294 6.62436 25.3525 6.50898 25.0609 6.49857C24.7694 6.48815 24.4843 6.58346 24.2621 6.7657C23.9189 7.04739 23.4785 7.19447 23.0281 7.1778C22.5778 7.16113 22.1504 6.98192 21.8306 6.67569C21.5132 6.36734 21.3275 5.95529 21.3102 5.52115C21.2929 5.08701 21.4454 4.66244 21.7373 4.33154C21.9263 4.11718 22.0251 3.84232 22.0143 3.56116C22.0035 3.27999 21.8839 3.01294 21.679 2.81265L19.1023 0.327294C18.8845 0.117709 18.5894 0 18.2818 0C17.9741 0 17.679 0.117709 17.4613 0.327294L13.3574 4.28428C13.104 4.52949 12.9129 4.82793 12.7991 5.15624C12.7769 5.21936 12.74 5.2767 12.6911 5.32382C12.6423 5.37095 12.5828 5.40658 12.5173 5.42795C12.1768 5.53771 11.8672 5.72219 11.6131 5.96687L1.0894 16.1153C0.872063 16.3253 0.75 16.6098 0.75 16.9065C0.75 17.2032 0.872063 17.4878 1.0894 17.6978L3.66667 20.1803C3.87437 20.3779 4.1513 20.4933 4.44286 20.5037C4.73442 20.5141 5.01944 20.4188 5.24173 20.2366C5.58409 19.9526 6.02509 19.8039 6.47635 19.8202C6.92762 19.8366 7.35581 20.0167 7.67512 20.3247C7.99444 20.6326 8.18129 21.0455 8.19823 21.4807C8.21518 21.9159 8.06096 22.3411 7.76649 22.6713C7.57752 22.8856 7.47869 23.1605 7.48949 23.4417C7.50028 23.7228 7.61993 23.9899 7.82483 24.1902L10.3992 26.6727C10.6169 26.8823 10.912 27 11.2197 27C11.5273 27 11.8224 26.8823 12.0402 26.6727L22.5639 16.5243C22.8175 16.2793 23.0088 15.9811 23.1228 15.6529C23.1448 15.5896 23.1818 15.532 23.2308 15.4848C23.2798 15.4375 23.3394 15.4019 23.4051 15.3806C23.7454 15.2708 24.0547 15.0866 24.3087 14.8422L28.4121 10.8847C28.6286 10.6747 28.7501 10.3906 28.75 10.0945C28.7499 9.79835 28.6282 9.51431 28.4115 9.30449ZM15.0894 7.63653C15.0027 7.72013 14.8998 7.78645 14.7865 7.83169C14.6733 7.87694 14.5519 7.90023 14.4293 7.90023C14.3067 7.90023 14.1853 7.87694 14.0721 7.83169C13.9588 7.78645 13.8559 7.72013 13.7692 7.63653L13.0978 6.98903C12.927 6.81938 12.8323 6.59174 12.8342 6.35531C12.836 6.11888 12.9342 5.89264 13.1077 5.72549C13.2811 5.55834 13.5157 5.4637 13.7609 5.46203C14.0061 5.46035 14.2421 5.55177 14.4179 5.71654L15.0894 6.36347C15.1761 6.44705 15.2448 6.54629 15.2917 6.6555C15.3387 6.76472 15.3628 6.88178 15.3628 7C15.3628 7.11822 15.3387 7.23528 15.2917 7.34449C15.2448 7.45371 15.1761 7.55294 15.0894 7.63653ZM17.6561 10.1118C17.4811 10.2804 17.2438 10.3752 16.9964 10.3752C16.7489 10.3752 16.5116 10.2804 16.3366 10.1118L15.6949 9.49295C15.6082 9.40936 15.5394 9.31012 15.4925 9.2009C15.4456 9.09169 15.4215 8.97463 15.4215 8.85642C15.4215 8.7382 15.4456 8.62115 15.4925 8.51193C15.5394 8.40272 15.6082 8.30348 15.6949 8.21989C15.87 8.05107 16.1074 7.95623 16.355 7.95623C16.4775 7.95623 16.5989 7.97952 16.7122 8.02476C16.8254 8.06999 16.9283 8.1363 17.015 8.21989L17.6567 8.8387C17.7437 8.92227 17.8127 9.02159 17.8599 9.13094C17.907 9.24029 17.9313 9.35753 17.9313 9.47595C17.9314 9.59437 17.9072 9.71164 17.8602 9.82103C17.8132 9.93042 17.7442 10.0298 17.6573 10.1134L17.6561 10.1118ZM20.2229 12.587C20.1362 12.6706 20.0333 12.7369 19.9201 12.7821C19.8068 12.8274 19.6854 12.8507 19.5628 12.8507C19.4402 12.8507 19.3189 12.8274 19.2056 12.7821C19.0923 12.7369 18.9894 12.6706 18.9028 12.587L18.2611 11.9682C18.0903 11.7985 17.9956 11.5709 17.9974 11.3345C17.9993 11.098 18.0975 10.8718 18.2709 10.7046C18.4443 10.5375 18.679 10.4428 18.9242 10.4412C19.1693 10.4395 19.4054 10.5309 19.5812 10.6957L20.2229 11.3145C20.3101 11.3979 20.3794 11.4972 20.4268 11.6065C20.4742 11.7158 20.4987 11.8331 20.499 11.9516C20.4993 12.07 20.4753 12.1874 20.4284 12.2969C20.3815 12.4065 20.3127 12.506 20.2258 12.5898L20.2229 12.587ZM22.8148 15.0926C22.7281 15.1762 22.6252 15.2425 22.5119 15.2878C22.3987 15.333 22.2773 15.3563 22.1547 15.3563C22.0321 15.3563 21.9107 15.333 21.7974 15.2878C21.6842 15.2425 21.5813 15.1762 21.4946 15.0926L20.8273 14.4457C20.7387 14.3623 20.6683 14.2628 20.62 14.153C20.5717 14.0432 20.5465 13.9252 20.5459 13.8059C20.5453 13.6866 20.5693 13.5684 20.6166 13.4581C20.6638 13.3479 20.7332 13.2478 20.8209 13.1636C20.9086 13.0795 21.0127 13.013 21.1273 12.968C21.2419 12.923 21.3646 12.9004 21.4883 12.9016C21.612 12.9027 21.7342 12.9276 21.8479 12.9747C21.9615 13.0218 22.0643 13.0902 22.1503 13.176L22.8183 13.8223C22.9049 13.906 22.9736 14.0052 23.0205 14.1145C23.0674 14.2237 23.0915 14.3408 23.0914 14.459C23.0914 14.5772 23.0672 14.6943 23.0202 14.8034C22.9732 14.9126 22.9044 15.0119 22.8177 15.0954L22.8148 15.0926Z" fill="#F5BA46"/>
</svg>
